<svg width="140" height="60" viewBox="0 0 1449 485" fill="none" xmlns="http://www.w3.org/2000/svg">
<g clip-path="url(#clip0_61_472)">
<path d="M258.648 433H234.084C243.482 445.376 235.152 454.564 229.812 457.611L199.551 458.666C169.291 459.955 110.765 463.588 118.739 467.807C126.713 472.026 168.817 475.659 188.871 476.949C217.47 476.714 277.516 476.386 288.908 476.949C303.148 477.652 367.94 470.972 373.992 467.807C374.704 461.83 325.932 459.721 308.844 458.666C291.756 457.611 285.348 457.611 262.92 457.611C250.958 450.579 255.088 438.274 258.648 433Z" fill="#572F1B"/>
<path d="M192.843 0C190.986 0.0690084 188.943 0.206065 186.737 0.419365C169.09 2.70029 147.372 13.7241 137.842 19.5459C138.801 20.2439 143.522 23.0362 154.738 28.6207C166.601 41.1859 169.117 48.5156 176.306 67.0144C182.058 81.8134 178.703 116.461 176.306 131.935L152.94 182.544C151.263 186.035 146.757 197.623 142.156 216.052C134.679 235.318 145.272 269.221 151.502 283.764L139.64 262.124C136.884 251.304 132.378 226.453 136.404 213.608C135.829 201.322 150.784 171.957 158.333 158.81C163.126 149.619 172.712 127.746 172.712 113.785C175.588 103.733 172.712 83.0699 170.914 73.995C166.361 56.078 150.64 21.9193 124.182 28.6207C97.7246 35.3222 71.938 70.7374 62.3519 87.6073C53.8443 100.056 36.6133 133.75 35.7506 168.932C34.6721 212.91 32.3682 263.171 80.3258 325.997C128.284 388.823 195.718 405.577 220.163 409.416C239.215 417.793 294.934 411.859 307.875 409.416C405.941 387.357 452.505 319.482 463.529 288.301C465.499 281.67 469.551 267.08 470 261.775C466.405 323.903 417.157 369.277 380.849 390.917C344.542 412.557 319.379 418.491 293.496 423.377C274.922 428.842 239.914 426.954 223.714 425.235C225.125 425.651 224.277 425.49 222.679 425.122C223.015 425.16 223.36 425.197 223.714 425.235C221.104 424.465 210.763 421.72 183.137 414.651C129.934 401.039 88.9533 361.598 70.2605 338.562C51.5676 315.526 37.548 281.321 26.7637 245.719C18.1362 217.238 23.1689 172.422 26.7637 153.575C27.6025 141.475 38.1232 105.827 73.4958 60.0337C106.246 17.6358 159.19 3.08296 186.737 0.419365C188.839 0.147644 190.883 0 192.843 0Z" fill="#572F1B"/>
<path d="M209.689 4.47346C190.846 1.42822 160.045 13.8168 147 20.3917C149.174 21.3145 154.682 23.9215 159.32 26.9667C163.959 30.0119 172.366 40.924 175.989 45.9994C178.164 50.8441 183.309 63.7172 186.498 76.4518C189.687 89.1864 187.827 114.287 186.498 125.245C181.666 137.011 171.134 162.549 167.655 170.577C163.307 173.623 154.006 200.684 149.899 213.834C148.329 227.214 147.652 258.266 157.509 275.43C167.365 292.595 184.565 298.962 191.934 300C198.215 300 213.965 294.602 226.721 273.008C239.476 251.415 265.856 231.944 277.452 224.907C262.233 226.637 231.214 226.084 228.895 210.027C226.576 193.97 233.243 177.037 236.867 170.577C238.196 168.616 244.042 159.435 256.797 138.395C272.741 112.095 276.727 103.79 281.438 83.7189C282.888 64.6861 281.438 57.7651 278.177 45.9994C277.09 35.2719 260.421 16.9312 254.623 13.4707C248.825 10.0103 235.055 4.47346 209.689 4.47346Z" fill="white" stroke="black" stroke-width="5"/>
<path d="M158.187 44.7734C148.692 31.1385 134.33 29.353 128.336 30.1646C122.581 28.4255 104.599 44.7734 88.7745 62.5127C72.95 80.252 67.1957 100.426 60.3624 113.644C54.8957 124.218 49.9326 156.543 48.1344 171.383C47.7747 178.688 47.9186 199.975 51.3712 226.688C54.8238 253.402 75.108 290.225 84.8184 305.298C94.7687 318.167 120.999 348.011 146.318 364.429C177.967 384.951 200.625 390.168 232.634 397.473C264.642 404.777 325.423 394.342 338.73 390.168C352.037 385.994 377.931 373.472 414.256 346.689C443.315 325.263 461.609 290.689 467.124 276.08C470.481 270.399 473.669 255.28 459.571 240.254C445.473 225.227 413.656 216.601 399.51 214.166C398.791 213.935 391.598 213.262 368.58 212.427C339.809 211.384 303.844 225.993 300.967 228.08C297.37 228.427 286.221 234.688 273.993 240.949C263.635 245.401 237.789 275.268 226.16 289.645C222.204 295.095 210.12 306.411 193.432 308.08C176.744 309.75 162.742 297.182 157.827 290.689C157.228 289.877 153.943 284.915 145.599 271.558C135.169 254.862 135.529 236.427 135.529 223.21C135.529 212.636 142.002 193.065 145.239 184.601C147.877 179.615 154.878 166.235 161.783 152.601C170.415 135.557 171.134 126.861 173.651 114.687C176.816 107.452 173.292 84.0781 171.134 73.2954C170.774 69.4693 167.681 58.4084 158.187 44.7734Z" fill="white" stroke="black" stroke-width="5"/>
</g>
<mask id="path-5-outside-1_61_472" maskUnits="userSpaceOnUse" x="349" y="72" width="1097" height="130" fill="black">
<rect fill="white" x="349" y="72" width="1097" height="130"/>
<path d="M351.76 164.32H360.848V90.336H351.76V82.656H421.52V105.824H408.336V90.976H378.768V121.44H398.224V112.992H407.056V138.208H398.224V129.76H378.768V163.68H409.36V146.784H422.544V172H351.76V164.32ZM433.34 164.32H441.532V87.904L433.34 86.24V79.84L458.3 74.72V164.32H466.492V172H433.34V164.32ZM505.76 164.32H514.848V90.336H505.76V82.656H553.504C557.429 82.656 561.013 83.1253 564.256 84.064C567.499 84.9173 570.272 86.2827 572.576 88.16C574.965 90.0373 576.8 92.4267 578.08 95.328C579.36 98.2293 580 101.643 580 105.568C580 111.712 578.165 116.789 574.496 120.8C570.827 124.811 566.091 127.413 560.288 128.608L576.416 156.384C578.123 159.371 579.915 161.461 581.792 162.656C583.669 163.765 586.059 164.32 588.96 164.32H589.728V172H578.848C576.032 172 573.557 171.787 571.424 171.36C569.376 170.848 567.541 170.08 565.92 169.056C564.384 168.032 563.019 166.752 561.824 165.216C560.629 163.68 559.477 161.888 558.368 159.84L544.032 131.936H532.768V164.32H541.856V172H505.76V164.32ZM532.768 124H547.744C552.267 124 555.68 122.891 557.984 120.672C560.373 118.453 561.568 115.253 561.568 111.072V103.904C561.568 99.7227 560.373 96.5227 557.984 94.304C555.68 92.0853 552.267 90.976 547.744 90.976H532.768V124ZM625.87 173.536C620.75 173.536 616.185 172.683 612.174 170.976C608.249 169.269 604.921 166.88 602.19 163.808C599.459 160.651 597.369 156.939 595.918 152.672C594.553 148.32 593.87 143.584 593.87 138.464C593.87 133.173 594.595 128.395 596.046 124.128C597.582 119.776 599.715 116.107 602.446 113.12C605.177 110.048 608.419 107.701 612.174 106.08C616.014 104.459 620.238 103.648 624.846 103.648C629.454 103.648 633.593 104.416 637.262 105.952C641.017 107.403 644.174 109.493 646.734 112.224C649.379 114.955 651.385 118.24 652.75 122.08C654.201 125.835 654.926 130.059 654.926 134.752V138.72H611.918V143.328C611.918 149.472 613.497 154.208 616.654 157.536C619.897 160.779 624.121 162.4 629.326 162.4C634.105 162.4 637.945 161.333 640.846 159.2C643.747 157.067 645.881 154.421 647.246 151.264L653.518 155.104C652.75 157.237 651.598 159.413 650.062 161.632C648.611 163.765 646.734 165.728 644.43 167.52C642.211 169.312 639.566 170.763 636.494 171.872C633.422 172.981 629.881 173.536 625.87 173.536ZM611.918 131.296H637.518V129.632C637.518 123.488 636.409 118.965 634.19 116.064C632.057 113.163 628.942 111.712 624.846 111.712C620.75 111.712 617.55 113.163 615.246 116.064C613.027 118.88 611.918 123.36 611.918 129.504V131.296ZM674.494 199.136C669.63 199.136 665.918 197.941 663.358 195.552C660.798 193.248 659.518 190.432 659.518 187.104C659.518 184.288 660.286 182.069 661.822 180.448C663.443 178.912 665.662 178.144 668.478 178.144C671.123 178.144 673.171 178.955 674.622 180.576C676.158 182.197 676.926 184.203 676.926 186.592C676.926 187.787 676.67 188.853 676.158 189.792C675.731 190.816 675.262 191.541 674.75 191.968L674.878 192.736C675.305 192.821 675.987 192.864 676.926 192.864C681.363 192.864 685.331 188.427 688.83 179.552L690.622 175.072L665.918 112.864H659.646V105.184H691.518V112.864H683.71L698.43 154.592H699.07L713.79 112.864H705.982V105.184H729.534V112.864H723.39L696.51 180.064C695.571 182.368 694.462 184.672 693.182 186.976C691.987 189.28 690.494 191.328 688.702 193.12C686.995 194.912 684.947 196.363 682.558 197.472C680.254 198.581 677.566 199.136 674.494 199.136ZM792.256 173.536C788.16 173.536 784.448 172.725 781.12 171.104C777.877 169.483 775.061 167.179 772.672 164.192C770.368 161.12 768.576 157.451 767.296 153.184C766.101 148.832 765.504 143.968 765.504 138.592C765.504 133.216 766.101 128.395 767.296 124.128C768.576 119.776 770.368 116.107 772.672 113.12C775.061 110.048 777.877 107.701 781.12 106.08C784.448 104.459 788.16 103.648 792.256 103.648C797.12 103.648 801.045 104.8 804.032 107.104C807.019 109.408 809.152 112.053 810.432 115.04H811.072V87.904L802.88 86.24V79.84L827.84 74.72V160.352L836.032 162.016V168.416L811.072 173.536V162.016H810.432C809.152 165.088 806.976 167.776 803.904 170.08C800.917 172.384 797.035 173.536 792.256 173.536ZM797.76 163.04C801.344 163.04 804.459 161.973 807.104 159.84C809.749 157.621 811.072 154.635 811.072 150.88V126.304C811.072 122.549 809.749 119.605 807.104 117.472C804.459 115.253 801.344 114.144 797.76 114.144C793.493 114.144 790.037 115.595 787.392 118.496C784.747 121.397 783.424 125.493 783.424 130.784V146.4C783.424 151.691 784.747 155.787 787.392 158.688C790.037 161.589 793.493 163.04 797.76 163.04ZM876.87 173.536C871.75 173.536 867.185 172.683 863.174 170.976C859.249 169.269 855.921 166.88 853.19 163.808C850.459 160.651 848.369 156.939 846.918 152.672C845.553 148.32 844.87 143.584 844.87 138.464C844.87 133.173 845.595 128.395 847.046 124.128C848.582 119.776 850.715 116.107 853.446 113.12C856.177 110.048 859.419 107.701 863.174 106.08C867.014 104.459 871.238 103.648 875.846 103.648C880.454 103.648 884.593 104.416 888.262 105.952C892.017 107.403 895.174 109.493 897.734 112.224C900.379 114.955 902.385 118.24 903.75 122.08C905.201 125.835 905.926 130.059 905.926 134.752V138.72H862.918V143.328C862.918 149.472 864.497 154.208 867.654 157.536C870.897 160.779 875.121 162.4 880.326 162.4C885.105 162.4 888.945 161.333 891.846 159.2C894.747 157.067 896.881 154.421 898.246 151.264L904.518 155.104C903.75 157.237 902.598 159.413 901.062 161.632C899.611 163.765 897.734 165.728 895.43 167.52C893.211 169.312 890.566 170.763 887.494 171.872C884.422 172.981 880.881 173.536 876.87 173.536ZM862.918 131.296H888.518V129.632C888.518 123.488 887.409 118.965 885.19 116.064C883.057 113.163 879.942 111.712 875.846 111.712C871.75 111.712 868.55 113.163 866.246 116.064C864.027 118.88 862.918 123.36 862.918 129.504V131.296ZM914.715 164.32H922.907V87.904L914.715 86.24V79.84L939.675 74.72V164.32H947.867V172H914.715V164.32ZM986.623 164.32H994.815V116.832L986.623 115.168V108.768L1011.33 103.648V116.064H1011.97C1012.56 114.443 1013.38 112.907 1014.4 111.456C1015.51 109.92 1016.83 108.597 1018.37 107.488C1019.9 106.293 1021.7 105.355 1023.74 104.672C1025.88 103.989 1028.27 103.648 1030.91 103.648C1036.54 103.648 1040.94 104.715 1044.1 106.848C1047.25 108.981 1049.43 112.181 1050.62 116.448H1051.14C1051.82 114.827 1052.71 113.248 1053.82 111.712C1055.02 110.176 1056.43 108.811 1058.05 107.616C1059.75 106.421 1061.67 105.483 1063.81 104.8C1066.03 104.032 1068.54 103.648 1071.36 103.648C1079.21 103.648 1084.76 105.739 1088 109.92C1091.33 114.016 1092.99 120.203 1092.99 128.48V164.32H1101.18V172H1068.8V164.32H1076.22V129.248C1076.22 124.213 1075.33 120.587 1073.54 118.368C1071.74 116.064 1068.8 114.912 1064.7 114.912C1063.17 114.912 1061.63 115.125 1060.1 115.552C1058.64 115.979 1057.32 116.661 1056.13 117.6C1055.02 118.453 1054.08 119.605 1053.31 121.056C1052.63 122.421 1052.29 124.043 1052.29 125.92V164.32H1059.71V172H1028.1V164.32H1035.52V129.248C1035.52 124.213 1034.62 120.587 1032.83 118.368C1031.12 116.064 1028.27 114.912 1024.26 114.912C1022.63 114.912 1021.06 115.125 1019.52 115.552C1017.98 115.979 1016.62 116.661 1015.42 117.6C1014.31 118.453 1013.38 119.605 1012.61 121.056C1011.92 122.421 1011.58 124.043 1011.58 125.92V164.32H1019.01V172H986.623V164.32ZM1138.67 173.536C1130.56 173.536 1124.8 171.488 1121.39 167.392C1117.97 163.211 1116.27 156.981 1116.27 148.704V116.832L1108.08 115.168V108.768L1133.04 103.648V147.936C1133.04 152.971 1133.97 156.64 1135.85 158.944C1137.73 161.163 1140.76 162.272 1144.94 162.272C1146.56 162.272 1148.14 162.059 1149.68 161.632C1151.21 161.205 1152.58 160.565 1153.77 159.712C1155.05 158.773 1156.08 157.621 1156.84 156.256C1157.61 154.891 1158 153.269 1158 151.392V116.832L1149.68 115.168V108.768L1174.76 103.648V160.352L1182.96 162.016V168.416L1158.25 173.536V161.12H1157.61C1157.01 162.741 1156.16 164.32 1155.05 165.856C1154.03 167.307 1152.7 168.629 1151.08 169.824C1149.55 170.933 1147.76 171.829 1145.71 172.512C1143.66 173.195 1141.31 173.536 1138.67 173.536ZM1223.87 173.536C1218.75 173.536 1214.18 172.683 1210.17 170.976C1206.25 169.269 1202.92 166.88 1200.19 163.808C1197.46 160.651 1195.37 156.939 1193.92 152.672C1192.55 148.32 1191.87 143.584 1191.87 138.464C1191.87 133.173 1192.6 128.395 1194.05 124.128C1195.58 119.776 1197.72 116.107 1200.45 113.12C1203.18 110.048 1206.42 107.701 1210.17 106.08C1214.01 104.459 1218.24 103.648 1222.85 103.648C1227.45 103.648 1231.59 104.416 1235.26 105.952C1239.02 107.403 1242.17 109.493 1244.73 112.224C1247.38 114.955 1249.38 118.24 1250.75 122.08C1252.2 125.835 1252.93 130.059 1252.93 134.752V138.72H1209.92V143.328C1209.92 149.472 1211.5 154.208 1214.65 157.536C1217.9 160.779 1222.12 162.4 1227.33 162.4C1232.1 162.4 1235.94 161.333 1238.85 159.2C1241.75 157.067 1243.88 154.421 1245.25 151.264L1251.52 155.104C1250.75 157.237 1249.6 159.413 1248.06 161.632C1246.61 163.765 1244.73 165.728 1242.43 167.52C1240.21 169.312 1237.57 170.763 1234.49 171.872C1231.42 172.981 1227.88 173.536 1223.87 173.536ZM1209.92 131.296H1235.52V129.632C1235.52 123.488 1234.41 118.965 1232.19 116.064C1230.06 113.163 1226.94 111.712 1222.85 111.712C1218.75 111.712 1215.55 113.163 1213.25 116.064C1211.03 118.88 1209.92 123.36 1209.92 129.504V131.296ZM1304.34 173.536C1299.22 173.536 1295.04 172.384 1291.8 170.08C1288.55 167.776 1286.29 165.088 1285.01 162.016H1284.37L1276.31 172H1268.76V87.904L1260.56 86.24V79.84L1285.52 74.72V115.04H1286.16C1287.44 112.053 1289.58 109.408 1292.56 107.104C1295.55 104.8 1299.48 103.648 1304.34 103.648C1308.44 103.648 1312.1 104.459 1315.35 106.08C1318.68 107.701 1321.49 110.048 1323.8 113.12C1326.18 116.107 1327.98 119.776 1329.17 124.128C1330.45 128.395 1331.09 133.216 1331.09 138.592C1331.09 143.968 1330.45 148.832 1329.17 153.184C1327.98 157.451 1326.18 161.12 1323.8 164.192C1321.49 167.179 1318.68 169.483 1315.35 171.104C1312.1 172.725 1308.44 173.536 1304.34 173.536ZM1298.84 163.04C1303.1 163.04 1306.56 161.589 1309.2 158.688C1311.85 155.787 1313.17 151.691 1313.17 146.4V130.784C1313.17 125.493 1311.85 121.397 1309.2 118.496C1306.56 115.595 1303.1 114.144 1298.84 114.144C1295.25 114.144 1292.14 115.253 1289.49 117.472C1286.85 119.605 1285.52 122.549 1285.52 126.304V150.88C1285.52 154.635 1286.85 157.621 1289.49 159.84C1292.14 161.973 1295.25 163.04 1298.84 163.04ZM1340.59 164.32H1348.78V87.904L1340.59 86.24V79.84L1365.55 74.72V164.32H1373.74V172H1340.59V164.32ZM1414.62 173.536C1409.5 173.536 1404.93 172.683 1400.92 170.976C1397 169.269 1393.67 166.88 1390.94 163.808C1388.21 160.651 1386.12 156.939 1384.67 152.672C1383.3 148.32 1382.62 143.584 1382.62 138.464C1382.62 133.173 1383.35 128.395 1384.8 124.128C1386.33 119.776 1388.47 116.107 1391.2 113.12C1393.93 110.048 1397.17 107.701 1400.92 106.08C1404.76 104.459 1408.99 103.648 1413.6 103.648C1418.2 103.648 1422.34 104.416 1426.01 105.952C1429.77 107.403 1432.92 109.493 1435.48 112.224C1438.13 114.955 1440.13 118.24 1441.5 122.08C1442.95 125.835 1443.68 130.059 1443.68 134.752V138.72H1400.67V143.328C1400.67 149.472 1402.25 154.208 1405.4 157.536C1408.65 160.779 1412.87 162.4 1418.08 162.4C1422.85 162.4 1426.69 161.333 1429.6 159.2C1432.5 157.067 1434.63 154.421 1436 151.264L1442.27 155.104C1441.5 157.237 1440.35 159.413 1438.81 161.632C1437.36 163.765 1435.48 165.728 1433.18 167.52C1430.96 169.312 1428.32 170.763 1425.24 171.872C1422.17 172.981 1418.63 173.536 1414.62 173.536ZM1400.67 131.296H1426.27V129.632C1426.27 123.488 1425.16 118.965 1422.94 116.064C1420.81 113.163 1417.69 111.712 1413.6 111.712C1409.5 111.712 1406.3 113.163 1404 116.064C1401.78 118.88 1400.67 123.36 1400.67 129.504V131.296Z"/>
</mask>
<path d="M351.76 164.32H360.848V90.336H351.76V82.656H421.52V105.824H408.336V90.976H378.768V121.44H398.224V112.992H407.056V138.208H398.224V129.76H378.768V163.68H409.36V146.784H422.544V172H351.76V164.32ZM433.34 164.32H441.532V87.904L433.34 86.24V79.84L458.3 74.72V164.32H466.492V172H433.34V164.32ZM505.76 164.32H514.848V90.336H505.76V82.656H553.504C557.429 82.656 561.013 83.1253 564.256 84.064C567.499 84.9173 570.272 86.2827 572.576 88.16C574.965 90.0373 576.8 92.4267 578.08 95.328C579.36 98.2293 580 101.643 580 105.568C580 111.712 578.165 116.789 574.496 120.8C570.827 124.811 566.091 127.413 560.288 128.608L576.416 156.384C578.123 159.371 579.915 161.461 581.792 162.656C583.669 163.765 586.059 164.32 588.96 164.32H589.728V172H578.848C576.032 172 573.557 171.787 571.424 171.36C569.376 170.848 567.541 170.08 565.92 169.056C564.384 168.032 563.019 166.752 561.824 165.216C560.629 163.68 559.477 161.888 558.368 159.84L544.032 131.936H532.768V164.32H541.856V172H505.76V164.32ZM532.768 124H547.744C552.267 124 555.68 122.891 557.984 120.672C560.373 118.453 561.568 115.253 561.568 111.072V103.904C561.568 99.7227 560.373 96.5227 557.984 94.304C555.68 92.0853 552.267 90.976 547.744 90.976H532.768V124ZM625.87 173.536C620.75 173.536 616.185 172.683 612.174 170.976C608.249 169.269 604.921 166.88 602.19 163.808C599.459 160.651 597.369 156.939 595.918 152.672C594.553 148.32 593.87 143.584 593.87 138.464C593.87 133.173 594.595 128.395 596.046 124.128C597.582 119.776 599.715 116.107 602.446 113.12C605.177 110.048 608.419 107.701 612.174 106.08C616.014 104.459 620.238 103.648 624.846 103.648C629.454 103.648 633.593 104.416 637.262 105.952C641.017 107.403 644.174 109.493 646.734 112.224C649.379 114.955 651.385 118.24 652.75 122.08C654.201 125.835 654.926 130.059 654.926 134.752V138.72H611.918V143.328C611.918 149.472 613.497 154.208 616.654 157.536C619.897 160.779 624.121 162.4 629.326 162.4C634.105 162.4 637.945 161.333 640.846 159.2C643.747 157.067 645.881 154.421 647.246 151.264L653.518 155.104C652.75 157.237 651.598 159.413 650.062 161.632C648.611 163.765 646.734 165.728 644.43 167.52C642.211 169.312 639.566 170.763 636.494 171.872C633.422 172.981 629.881 173.536 625.87 173.536ZM611.918 131.296H637.518V129.632C637.518 123.488 636.409 118.965 634.19 116.064C632.057 113.163 628.942 111.712 624.846 111.712C620.75 111.712 617.55 113.163 615.246 116.064C613.027 118.88 611.918 123.36 611.918 129.504V131.296ZM674.494 199.136C669.63 199.136 665.918 197.941 663.358 195.552C660.798 193.248 659.518 190.432 659.518 187.104C659.518 184.288 660.286 182.069 661.822 180.448C663.443 178.912 665.662 178.144 668.478 178.144C671.123 178.144 673.171 178.955 674.622 180.576C676.158 182.197 676.926 184.203 676.926 186.592C676.926 187.787 676.67 188.853 676.158 189.792C675.731 190.816 675.262 191.541 674.75 191.968L674.878 192.736C675.305 192.821 675.987 192.864 676.926 192.864C681.363 192.864 685.331 188.427 688.83 179.552L690.622 175.072L665.918 112.864H659.646V105.184H691.518V112.864H683.71L698.43 154.592H699.07L713.79 112.864H705.982V105.184H729.534V112.864H723.39L696.51 180.064C695.571 182.368 694.462 184.672 693.182 186.976C691.987 189.28 690.494 191.328 688.702 193.12C686.995 194.912 684.947 196.363 682.558 197.472C680.254 198.581 677.566 199.136 674.494 199.136ZM792.256 173.536C788.16 173.536 784.448 172.725 781.12 171.104C777.877 169.483 775.061 167.179 772.672 164.192C770.368 161.12 768.576 157.451 767.296 153.184C766.101 148.832 765.504 143.968 765.504 138.592C765.504 133.216 766.101 128.395 767.296 124.128C768.576 119.776 770.368 116.107 772.672 113.12C775.061 110.048 777.877 107.701 781.12 106.08C784.448 104.459 788.16 103.648 792.256 103.648C797.12 103.648 801.045 104.8 804.032 107.104C807.019 109.408 809.152 112.053 810.432 115.04H811.072V87.904L802.88 86.24V79.84L827.84 74.72V160.352L836.032 162.016V168.416L811.072 173.536V162.016H810.432C809.152 165.088 806.976 167.776 803.904 170.08C800.917 172.384 797.035 173.536 792.256 173.536ZM797.76 163.04C801.344 163.04 804.459 161.973 807.104 159.84C809.749 157.621 811.072 154.635 811.072 150.88V126.304C811.072 122.549 809.749 119.605 807.104 117.472C804.459 115.253 801.344 114.144 797.76 114.144C793.493 114.144 790.037 115.595 787.392 118.496C784.747 121.397 783.424 125.493 783.424 130.784V146.4C783.424 151.691 784.747 155.787 787.392 158.688C790.037 161.589 793.493 163.04 797.76 163.04ZM876.87 173.536C871.75 173.536 867.185 172.683 863.174 170.976C859.249 169.269 855.921 166.88 853.19 163.808C850.459 160.651 848.369 156.939 846.918 152.672C845.553 148.32 844.87 143.584 844.87 138.464C844.87 133.173 845.595 128.395 847.046 124.128C848.582 119.776 850.715 116.107 853.446 113.12C856.177 110.048 859.419 107.701 863.174 106.08C867.014 104.459 871.238 103.648 875.846 103.648C880.454 103.648 884.593 104.416 888.262 105.952C892.017 107.403 895.174 109.493 897.734 112.224C900.379 114.955 902.385 118.24 903.75 122.08C905.201 125.835 905.926 130.059 905.926 134.752V138.72H862.918V143.328C862.918 149.472 864.497 154.208 867.654 157.536C870.897 160.779 875.121 162.4 880.326 162.4C885.105 162.4 888.945 161.333 891.846 159.2C894.747 157.067 896.881 154.421 898.246 151.264L904.518 155.104C903.75 157.237 902.598 159.413 901.062 161.632C899.611 163.765 897.734 165.728 895.43 167.52C893.211 169.312 890.566 170.763 887.494 171.872C884.422 172.981 880.881 173.536 876.87 173.536ZM862.918 131.296H888.518V129.632C888.518 123.488 887.409 118.965 885.19 116.064C883.057 113.163 879.942 111.712 875.846 111.712C871.75 111.712 868.55 113.163 866.246 116.064C864.027 118.88 862.918 123.36 862.918 129.504V131.296ZM914.715 164.32H922.907V87.904L914.715 86.24V79.84L939.675 74.72V164.32H947.867V172H914.715V164.32ZM986.623 164.32H994.815V116.832L986.623 115.168V108.768L1011.33 103.648V116.064H1011.97C1012.56 114.443 1013.38 112.907 1014.4 111.456C1015.51 109.92 1016.83 108.597 1018.37 107.488C1019.9 106.293 1021.7 105.355 1023.74 104.672C1025.88 103.989 1028.27 103.648 1030.91 103.648C1036.54 103.648 1040.94 104.715 1044.1 106.848C1047.25 108.981 1049.43 112.181 1050.62 116.448H1051.14C1051.82 114.827 1052.71 113.248 1053.82 111.712C1055.02 110.176 1056.43 108.811 1058.05 107.616C1059.75 106.421 1061.67 105.483 1063.81 104.8C1066.03 104.032 1068.54 103.648 1071.36 103.648C1079.21 103.648 1084.76 105.739 1088 109.92C1091.33 114.016 1092.99 120.203 1092.99 128.48V164.32H1101.18V172H1068.8V164.32H1076.22V129.248C1076.22 124.213 1075.33 120.587 1073.54 118.368C1071.74 116.064 1068.8 114.912 1064.7 114.912C1063.17 114.912 1061.63 115.125 1060.1 115.552C1058.64 115.979 1057.32 116.661 1056.13 117.6C1055.02 118.453 1054.08 119.605 1053.31 121.056C1052.63 122.421 1052.29 124.043 1052.29 125.92V164.32H1059.71V172H1028.1V164.32H1035.52V129.248C1035.52 124.213 1034.62 120.587 1032.83 118.368C1031.12 116.064 1028.27 114.912 1024.26 114.912C1022.63 114.912 1021.06 115.125 1019.52 115.552C1017.98 115.979 1016.62 116.661 1015.42 117.6C1014.31 118.453 1013.38 119.605 1012.61 121.056C1011.92 122.421 1011.58 124.043 1011.58 125.92V164.32H1019.01V172H986.623V164.32ZM1138.67 173.536C1130.56 173.536 1124.8 171.488 1121.39 167.392C1117.97 163.211 1116.27 156.981 1116.27 148.704V116.832L1108.08 115.168V108.768L1133.04 103.648V147.936C1133.04 152.971 1133.97 156.64 1135.85 158.944C1137.73 161.163 1140.76 162.272 1144.94 162.272C1146.56 162.272 1148.14 162.059 1149.68 161.632C1151.21 161.205 1152.58 160.565 1153.77 159.712C1155.05 158.773 1156.08 157.621 1156.84 156.256C1157.61 154.891 1158 153.269 1158 151.392V116.832L1149.68 115.168V108.768L1174.76 103.648V160.352L1182.96 162.016V168.416L1158.25 173.536V161.12H1157.61C1157.01 162.741 1156.16 164.32 1155.05 165.856C1154.03 167.307 1152.7 168.629 1151.08 169.824C1149.55 170.933 1147.76 171.829 1145.71 172.512C1143.66 173.195 1141.31 173.536 1138.67 173.536ZM1223.87 173.536C1218.75 173.536 1214.18 172.683 1210.17 170.976C1206.25 169.269 1202.92 166.88 1200.19 163.808C1197.46 160.651 1195.37 156.939 1193.92 152.672C1192.55 148.32 1191.87 143.584 1191.87 138.464C1191.87 133.173 1192.6 128.395 1194.05 124.128C1195.58 119.776 1197.72 116.107 1200.45 113.12C1203.18 110.048 1206.42 107.701 1210.17 106.08C1214.01 104.459 1218.24 103.648 1222.85 103.648C1227.45 103.648 1231.59 104.416 1235.26 105.952C1239.02 107.403 1242.17 109.493 1244.73 112.224C1247.38 114.955 1249.38 118.24 1250.75 122.08C1252.2 125.835 1252.93 130.059 1252.93 134.752V138.72H1209.92V143.328C1209.92 149.472 1211.5 154.208 1214.65 157.536C1217.9 160.779 1222.12 162.4 1227.33 162.4C1232.1 162.4 1235.94 161.333 1238.85 159.2C1241.75 157.067 1243.88 154.421 1245.25 151.264L1251.52 155.104C1250.75 157.237 1249.6 159.413 1248.06 161.632C1246.61 163.765 1244.73 165.728 1242.43 167.52C1240.21 169.312 1237.57 170.763 1234.49 171.872C1231.42 172.981 1227.88 173.536 1223.87 173.536ZM1209.92 131.296H1235.52V129.632C1235.52 123.488 1234.41 118.965 1232.19 116.064C1230.06 113.163 1226.94 111.712 1222.85 111.712C1218.75 111.712 1215.55 113.163 1213.25 116.064C1211.03 118.88 1209.92 123.36 1209.92 129.504V131.296ZM1304.34 173.536C1299.22 173.536 1295.04 172.384 1291.8 170.08C1288.55 167.776 1286.29 165.088 1285.01 162.016H1284.37L1276.31 172H1268.76V87.904L1260.56 86.24V79.84L1285.52 74.72V115.04H1286.16C1287.44 112.053 1289.58 109.408 1292.56 107.104C1295.55 104.8 1299.48 103.648 1304.34 103.648C1308.44 103.648 1312.1 104.459 1315.35 106.08C1318.68 107.701 1321.49 110.048 1323.8 113.12C1326.18 116.107 1327.98 119.776 1329.17 124.128C1330.45 128.395 1331.09 133.216 1331.09 138.592C1331.09 143.968 1330.45 148.832 1329.17 153.184C1327.98 157.451 1326.18 161.12 1323.8 164.192C1321.49 167.179 1318.68 169.483 1315.35 171.104C1312.1 172.725 1308.44 173.536 1304.34 173.536ZM1298.84 163.04C1303.1 163.04 1306.56 161.589 1309.2 158.688C1311.85 155.787 1313.17 151.691 1313.17 146.4V130.784C1313.17 125.493 1311.85 121.397 1309.2 118.496C1306.56 115.595 1303.1 114.144 1298.84 114.144C1295.25 114.144 1292.14 115.253 1289.49 117.472C1286.85 119.605 1285.52 122.549 1285.52 126.304V150.88C1285.52 154.635 1286.85 157.621 1289.49 159.84C1292.14 161.973 1295.25 163.04 1298.84 163.04ZM1340.59 164.32H1348.78V87.904L1340.59 86.24V79.84L1365.55 74.72V164.32H1373.74V172H1340.59V164.32ZM1414.62 173.536C1409.5 173.536 1404.93 172.683 1400.92 170.976C1397 169.269 1393.67 166.88 1390.94 163.808C1388.21 160.651 1386.12 156.939 1384.67 152.672C1383.3 148.32 1382.62 143.584 1382.62 138.464C1382.62 133.173 1383.35 128.395 1384.8 124.128C1386.33 119.776 1388.47 116.107 1391.2 113.12C1393.93 110.048 1397.17 107.701 1400.92 106.08C1404.76 104.459 1408.99 103.648 1413.6 103.648C1418.2 103.648 1422.34 104.416 1426.01 105.952C1429.77 107.403 1432.92 109.493 1435.48 112.224C1438.13 114.955 1440.13 118.24 1441.5 122.08C1442.95 125.835 1443.68 130.059 1443.68 134.752V138.72H1400.67V143.328C1400.67 149.472 1402.25 154.208 1405.4 157.536C1408.65 160.779 1412.87 162.4 1418.08 162.4C1422.85 162.4 1426.69 161.333 1429.6 159.2C1432.5 157.067 1434.63 154.421 1436 151.264L1442.27 155.104C1441.5 157.237 1440.35 159.413 1438.81 161.632C1437.36 163.765 1435.48 165.728 1433.18 167.52C1430.96 169.312 1428.32 170.763 1425.24 171.872C1422.17 172.981 1418.63 173.536 1414.62 173.536ZM1400.67 131.296H1426.27V129.632C1426.27 123.488 1425.16 118.965 1422.94 116.064C1420.81 113.163 1417.69 111.712 1413.6 111.712C1409.5 111.712 1406.3 113.163 1404 116.064C1401.78 118.88 1400.67 123.36 1400.67 129.504V131.296Z" fill="white"/>
<path d="M351.76 164.32V162.32H349.76V164.32H351.76ZM360.848 164.32V166.32H362.848V164.32H360.848ZM360.848 90.336H362.848V88.336H360.848V90.336ZM351.76 90.336H349.76V92.336H351.76V90.336ZM351.76 82.656V80.656H349.76V82.656H351.76ZM421.52 82.656H423.52V80.656H421.52V82.656ZM421.52 105.824V107.824H423.52V105.824H421.52ZM408.336 105.824H406.336V107.824H408.336V105.824ZM408.336 90.976H410.336V88.976H408.336V90.976ZM378.768 90.976V88.976H376.768V90.976H378.768ZM378.768 121.44H376.768V123.44H378.768V121.44ZM398.224 121.44V123.44H400.224V121.44H398.224ZM398.224 112.992V110.992H396.224V112.992H398.224ZM407.056 112.992H409.056V110.992H407.056V112.992ZM407.056 138.208V140.208H409.056V138.208H407.056ZM398.224 138.208H396.224V140.208H398.224V138.208ZM398.224 129.76H400.224V127.76H398.224V129.76ZM378.768 129.76V127.76H376.768V129.76H378.768ZM378.768 163.68H376.768V165.68H378.768V163.68ZM409.36 163.68V165.68H411.36V163.68H409.36ZM409.36 146.784V144.784H407.36V146.784H409.36ZM422.544 146.784H424.544V144.784H422.544V146.784ZM422.544 172V174H424.544V172H422.544ZM351.76 172H349.76V174H351.76V172ZM351.76 166.32H360.848V162.32H351.76V166.32ZM362.848 164.32V90.336H358.848V164.32H362.848ZM360.848 88.336H351.76V92.336H360.848V88.336ZM353.76 90.336V82.656H349.76V90.336H353.76ZM351.76 84.656H421.52V80.656H351.76V84.656ZM419.52 82.656V105.824H423.52V82.656H419.52ZM421.52 103.824H408.336V107.824H421.52V103.824ZM410.336 105.824V90.976H406.336V105.824H410.336ZM408.336 88.976H378.768V92.976H408.336V88.976ZM376.768 90.976V121.44H380.768V90.976H376.768ZM378.768 123.44H398.224V119.44H378.768V123.44ZM400.224 121.44V112.992H396.224V121.44H400.224ZM398.224 114.992H407.056V110.992H398.224V114.992ZM405.056 112.992V138.208H409.056V112.992H405.056ZM407.056 136.208H398.224V140.208H407.056V136.208ZM400.224 138.208V129.76H396.224V138.208H400.224ZM398.224 127.76H378.768V131.76H398.224V127.76ZM376.768 129.76V163.68H380.768V129.76H376.768ZM378.768 165.68H409.36V161.68H378.768V165.68ZM411.36 163.68V146.784H407.36V163.68H411.36ZM409.36 148.784H422.544V144.784H409.36V148.784ZM420.544 146.784V172H424.544V146.784H420.544ZM422.544 170H351.76V174H422.544V170ZM353.76 172V164.32H349.76V172H353.76ZM433.34 164.32V162.32H431.34V164.32H433.34ZM441.532 164.32V166.32H443.532V164.32H441.532ZM441.532 87.904H443.532V86.2694L441.93 85.944L441.532 87.904ZM433.34 86.24H431.34V87.8746L432.942 88.2L433.34 86.24ZM433.34 79.84L432.938 77.8808L431.34 78.2086V79.84H433.34ZM458.3 74.72H460.3V72.2681L457.898 72.7608L458.3 74.72ZM458.3 164.32H456.3V166.32H458.3V164.32ZM466.492 164.32H468.492V162.32H466.492V164.32ZM466.492 172V174H468.492V172H466.492ZM433.34 172H431.34V174H433.34V172ZM433.34 166.32H441.532V162.32H433.34V166.32ZM443.532 164.32V87.904H439.532V164.32H443.532ZM441.93 85.944L433.738 84.28L432.942 88.2L441.134 89.864L441.93 85.944ZM435.34 86.24V79.84H431.34V86.24H435.34ZM433.742 81.7992L458.702 76.6792L457.898 72.7608L432.938 77.8808L433.742 81.7992ZM456.3 74.72V164.32H460.3V74.72H456.3ZM458.3 166.32H466.492V162.32H458.3V166.32ZM464.492 164.32V172H468.492V164.32H464.492ZM466.492 170H433.34V174H466.492V170ZM435.34 172V164.32H431.34V172H435.34ZM505.76 164.32V162.32H503.76V164.32H505.76ZM514.848 164.32V166.32H516.848V164.32H514.848ZM514.848 90.336H516.848V88.336H514.848V90.336ZM505.76 90.336H503.76V92.336H505.76V90.336ZM505.76 82.656V80.656H503.76V82.656H505.76ZM564.256 84.064L563.7 85.9851L563.723 85.9919L563.747 85.9981L564.256 84.064ZM572.576 88.16L571.313 89.7105L571.326 89.7217L571.34 89.7326L572.576 88.16ZM578.08 95.328L579.91 94.5207V94.5207L578.08 95.328ZM574.496 120.8L575.972 122.15L574.496 120.8ZM560.288 128.608L559.885 126.649L557.163 127.209L558.558 129.612L560.288 128.608ZM576.416 156.384L578.153 155.392L578.146 155.38L576.416 156.384ZM581.792 162.656L580.718 164.343L580.746 164.361L580.775 164.378L581.792 162.656ZM589.728 164.32H591.728V162.32H589.728V164.32ZM589.728 172V174H591.728V172H589.728ZM571.424 171.36L570.939 173.3L570.985 173.312L571.032 173.321L571.424 171.36ZM565.92 169.056L564.811 170.72L564.831 170.734L564.852 170.747L565.92 169.056ZM561.824 165.216L563.403 163.988L561.824 165.216ZM558.368 159.84L556.589 160.754L556.599 160.773L556.609 160.793L558.368 159.84ZM544.032 131.936L545.811 131.022L545.253 129.936H544.032V131.936ZM532.768 131.936V129.936H530.768V131.936H532.768ZM532.768 164.32H530.768V166.32H532.768V164.32ZM541.856 164.32H543.856V162.32H541.856V164.32ZM541.856 172V174H543.856V172H541.856ZM505.76 172H503.76V174H505.76V172ZM532.768 124H530.768V126H532.768V124ZM557.984 120.672L556.623 119.206L556.61 119.219L556.597 119.231L557.984 120.672ZM557.984 94.304L556.597 95.7446L556.61 95.7572L556.623 95.7696L557.984 94.304ZM532.768 90.976V88.976H530.768V90.976H532.768ZM505.76 166.32H514.848V162.32H505.76V166.32ZM516.848 164.32V90.336H512.848V164.32H516.848ZM514.848 88.336H505.76V92.336H514.848V88.336ZM507.76 90.336V82.656H503.76V90.336H507.76ZM505.76 84.656H553.504V80.656H505.76V84.656ZM553.504 84.656C557.271 84.656 560.665 85.1065 563.7 85.9851L564.812 82.1429C561.362 81.1442 557.588 80.656 553.504 80.656V84.656ZM563.747 85.9981C566.749 86.7882 569.257 88.0352 571.313 89.7105L573.839 86.6095C571.287 84.5302 568.248 83.0465 564.765 82.1298L563.747 85.9981ZM571.34 89.7326C573.46 91.3985 575.097 93.5204 576.25 96.1353L579.91 94.5207C578.503 91.333 576.47 88.6762 573.812 86.5874L571.34 89.7326ZM576.25 96.1353C577.395 98.7294 578 101.856 578 105.568H582C582 101.429 581.325 97.7293 579.91 94.5207L576.25 96.1353ZM578 105.568C578 111.282 576.308 115.857 573.02 119.45L575.972 122.15C580.023 117.722 582 112.142 582 105.568H578ZM573.02 119.45C569.661 123.122 565.314 125.531 559.885 126.649L560.691 130.567C566.868 129.295 571.992 126.5 575.972 122.15L573.02 119.45ZM558.558 129.612L574.686 157.388L578.146 155.38L562.018 127.604L558.558 129.612ZM574.68 157.376C576.467 160.505 578.457 162.905 580.718 164.343L582.866 160.969C581.372 160.018 579.778 158.236 578.152 155.392L574.68 157.376ZM580.775 164.378C583.046 165.72 585.815 166.32 588.96 166.32V162.32C586.302 162.32 584.293 161.811 582.809 160.934L580.775 164.378ZM588.96 166.32H589.728V162.32H588.96V166.32ZM587.728 164.32V172H591.728V164.32H587.728ZM589.728 170H578.848V174H589.728V170ZM578.848 170C576.127 170 573.789 169.793 571.816 169.399L571.032 173.321C573.325 173.78 575.937 174 578.848 174V170ZM571.909 169.42C570.047 168.954 568.412 168.265 566.988 167.365L564.852 170.747C566.67 171.895 568.705 172.742 570.939 173.3L571.909 169.42ZM567.029 167.392C565.682 166.493 564.473 165.364 563.403 163.988L560.245 166.444C561.565 168.14 563.086 169.571 564.811 170.72L567.029 167.392ZM563.403 163.988C562.287 162.554 561.193 160.857 560.127 158.887L556.609 160.793C557.761 162.919 558.972 164.806 560.245 166.444L563.403 163.988ZM560.147 158.926L545.811 131.022L542.253 132.85L556.589 160.754L560.147 158.926ZM544.032 129.936H532.768V133.936H544.032V129.936ZM530.768 131.936V164.32H534.768V131.936H530.768ZM532.768 166.32H541.856V162.32H532.768V166.32ZM539.856 164.32V172H543.856V164.32H539.856ZM541.856 170H505.76V174H541.856V170ZM507.76 172V164.32H503.76V172H507.76ZM532.768 126H547.744V122H532.768V126ZM547.744 126C552.569 126 556.564 124.816 559.371 122.113L556.597 119.231C554.796 120.965 551.965 122 547.744 122V126ZM559.345 122.138C562.25 119.44 563.568 115.643 563.568 111.072H559.568C559.568 114.864 558.497 117.466 556.623 119.206L559.345 122.138ZM563.568 111.072V103.904H559.568V111.072H563.568ZM563.568 103.904C563.568 99.3329 562.25 95.5356 559.345 92.8384L556.623 95.7696C558.497 97.5098 559.568 100.112 559.568 103.904H563.568ZM559.371 92.8634C556.564 90.16 552.569 88.976 547.744 88.976V92.976C551.965 92.976 554.796 94.0106 556.597 95.7446L559.371 92.8634ZM547.744 88.976H532.768V92.976H547.744V88.976ZM530.768 90.976V124H534.768V90.976H530.768ZM612.174 170.976L611.377 172.81L611.384 172.813L611.391 172.816L612.174 170.976ZM602.19 163.808L600.677 165.116L600.686 165.127L600.695 165.137L602.19 163.808ZM595.918 152.672L594.01 153.271L594.017 153.293L594.024 153.316L595.918 152.672ZM596.046 124.128L594.16 123.462L594.156 123.473L594.152 123.484L596.046 124.128ZM602.446 113.12L603.922 114.47L603.932 114.459L603.941 114.449L602.446 113.12ZM612.174 106.08L611.396 104.237L611.389 104.241L611.381 104.244L612.174 106.08ZM637.262 105.952L636.49 107.797L636.515 107.808L636.541 107.818L637.262 105.952ZM646.734 112.224L645.275 113.592L645.286 113.604L645.298 113.616L646.734 112.224ZM652.75 122.08L650.866 122.75L650.875 122.776L650.884 122.801L652.75 122.08ZM654.926 138.72V140.72H656.926V138.72H654.926ZM611.918 138.72V136.72H609.918V138.72H611.918ZM616.654 157.536L615.203 158.913L615.221 158.932L615.24 158.95L616.654 157.536ZM640.846 159.2L639.661 157.589L640.846 159.2ZM647.246 151.264L648.29 149.558L646.325 148.355L645.41 150.47L647.246 151.264ZM653.518 155.104L655.4 155.781L655.952 154.249L654.562 153.398L653.518 155.104ZM650.062 161.632L648.418 160.494L648.413 160.5L648.408 160.507L650.062 161.632ZM644.43 167.52L643.202 165.941L643.188 165.953L643.173 165.964L644.43 167.52ZM636.494 171.872L637.173 173.753L636.494 171.872ZM611.918 131.296H609.918V133.296H611.918V131.296ZM637.518 131.296V133.296H639.518V131.296H637.518ZM634.19 116.064L632.579 117.249L632.59 117.264L632.601 117.279L634.19 116.064ZM615.246 116.064L613.68 114.82L613.675 114.826L615.246 116.064ZM625.87 171.536C620.973 171.536 616.681 170.72 612.957 169.136L611.391 172.816C615.689 174.645 620.527 175.536 625.87 175.536V171.536ZM612.971 169.142C609.301 167.546 606.214 165.325 603.685 162.479L600.695 165.137C603.627 168.435 607.196 170.993 611.377 172.81L612.971 169.142ZM603.703 162.5C601.154 159.552 599.186 156.07 597.812 152.028L594.024 153.316C595.551 157.807 597.765 161.749 600.677 165.116L603.703 162.5ZM597.826 152.073C596.529 147.937 595.87 143.405 595.87 138.464H591.87C591.87 143.763 592.577 148.703 594.01 153.271L597.826 152.073ZM595.87 138.464C595.87 133.355 596.57 128.799 597.94 124.772L594.152 123.484C592.62 127.991 591.87 132.992 591.87 138.464H595.87ZM597.932 124.794C599.391 120.659 601.396 117.232 603.922 114.47L600.97 111.77C598.034 114.981 595.773 118.893 594.16 123.462L597.932 124.794ZM603.941 114.449C606.478 111.594 609.482 109.421 612.967 107.916L611.381 104.244C607.357 105.982 603.875 108.502 600.951 111.791L603.941 114.449ZM612.952 107.922C616.521 106.416 620.477 105.648 624.846 105.648V101.648C619.999 101.648 615.507 102.502 611.396 104.237L612.952 107.922ZM624.846 105.648C629.23 105.648 633.101 106.378 636.49 107.797L638.034 104.107C634.085 102.454 629.678 101.648 624.846 101.648V105.648ZM636.541 107.818C640.037 109.168 642.936 111.097 645.275 113.592L648.193 110.856C645.412 107.89 641.996 105.637 637.983 104.086L636.541 107.818ZM645.298 113.616C647.73 116.126 649.589 119.16 650.866 122.75L654.634 121.41C653.18 117.32 651.029 113.783 648.17 110.832L645.298 113.616ZM650.884 122.801C652.233 126.291 652.926 130.265 652.926 134.752H656.926C656.926 129.852 656.169 125.379 654.616 121.359L650.884 122.801ZM652.926 134.752V138.72H656.926V134.752H652.926ZM654.926 136.72H611.918V140.72H654.926V136.72ZM609.918 138.72V143.328H613.918V138.72H609.918ZM609.918 143.328C609.918 149.806 611.587 155.101 615.203 158.913L618.105 156.159C615.406 153.315 613.918 149.138 613.918 143.328H609.918ZM615.24 158.95C618.909 162.62 623.668 164.4 629.326 164.4V160.4C624.573 160.4 620.884 158.938 618.068 156.122L615.24 158.95ZM629.326 164.4C634.393 164.4 638.689 163.268 642.031 160.811L639.661 157.589C637.2 159.398 633.817 160.4 629.326 160.4V164.4ZM642.031 160.811C645.204 158.478 647.569 155.556 649.082 152.058L645.41 150.47C644.192 153.287 642.291 155.655 639.661 157.589L642.031 160.811ZM646.202 152.97L652.474 156.81L654.562 153.398L648.29 149.558L646.202 152.97ZM651.636 154.427C650.937 156.369 649.873 158.391 648.418 160.494L651.706 162.77C653.323 160.435 654.563 158.106 655.4 155.781L651.636 154.427ZM648.408 160.507C647.089 162.447 645.363 164.261 643.202 165.941L645.658 169.099C648.105 167.195 650.133 165.084 651.716 162.757L648.408 160.507ZM643.173 165.964C641.151 167.598 638.707 168.946 635.815 169.991L637.173 173.753C640.425 172.579 643.272 171.026 645.687 169.076L643.173 165.964ZM635.815 169.991C633.004 171.006 629.7 171.536 625.87 171.536V175.536C630.061 175.536 633.84 174.957 637.173 173.753L635.815 169.991ZM611.918 133.296H637.518V129.296H611.918V133.296ZM639.518 131.296V129.632H635.518V131.296H639.518ZM639.518 129.632C639.518 123.321 638.392 118.267 635.779 114.849L632.601 117.279C634.425 119.664 635.518 123.655 635.518 129.632H639.518ZM635.801 114.879C633.235 111.39 629.478 109.712 624.846 109.712V113.712C628.406 113.712 630.878 114.936 632.579 117.249L635.801 114.879ZM624.846 109.712C620.213 109.712 616.407 111.386 613.68 114.82L616.812 117.308C618.693 114.939 621.287 113.712 624.846 113.712V109.712ZM613.675 114.826C611.041 118.17 609.918 123.201 609.918 129.504H613.918C613.918 123.519 615.014 119.59 616.817 117.302L613.675 114.826ZM609.918 129.504V131.296H613.918V129.504H609.918ZM663.358 195.552L664.723 194.09L664.709 194.078L664.696 194.065L663.358 195.552ZM661.822 180.448L660.447 178.996L660.407 179.033L660.37 179.073L661.822 180.448ZM674.622 180.576L673.132 181.91L673.151 181.931L673.17 181.951L674.622 180.576ZM676.158 189.792L674.402 188.834L674.352 188.926L674.312 189.023L676.158 189.792ZM674.75 191.968L673.47 190.432L672.589 191.166L672.777 192.297L674.75 191.968ZM674.878 192.736L672.905 193.065L673.132 194.426L674.486 194.697L674.878 192.736ZM688.83 179.552L686.973 178.809L686.969 178.818L688.83 179.552ZM690.622 175.072L692.479 175.815L692.775 175.075L692.481 174.334L690.622 175.072ZM665.918 112.864L667.777 112.126L667.276 110.864H665.918V112.864ZM659.646 112.864H657.646V114.864H659.646V112.864ZM659.646 105.184V103.184H657.646V105.184H659.646ZM691.518 105.184H693.518V103.184H691.518V105.184ZM691.518 112.864V114.864H693.518V112.864H691.518ZM683.71 112.864V110.864H680.884L681.824 113.529L683.71 112.864ZM698.43 154.592L696.544 155.257L697.015 156.592H698.43V154.592ZM699.07 154.592V156.592H700.485L700.956 155.257L699.07 154.592ZM713.79 112.864L715.676 113.529L716.616 110.864H713.79V112.864ZM705.982 112.864H703.982V114.864H705.982V112.864ZM705.982 105.184V103.184H703.982V105.184H705.982ZM729.534 105.184H731.534V103.184H729.534V105.184ZM729.534 112.864V114.864H731.534V112.864H729.534ZM723.39 112.864V110.864H722.036L721.533 112.121L723.39 112.864ZM696.51 180.064L698.362 180.819L698.367 180.807L696.51 180.064ZM693.182 186.976L691.434 186.005L691.42 186.03L691.406 186.055L693.182 186.976ZM688.702 193.12L687.288 191.706L687.271 191.723L687.254 191.741L688.702 193.12ZM682.558 197.472L681.716 195.658L681.703 195.664L681.69 195.67L682.558 197.472ZM674.494 197.136C669.938 197.136 666.789 196.018 664.723 194.09L661.993 197.014C665.047 199.864 669.322 201.136 674.494 201.136V197.136ZM664.696 194.065C662.541 192.126 661.518 189.843 661.518 187.104H657.518C657.518 191.021 659.055 194.37 662.02 197.039L664.696 194.065ZM661.518 187.104C661.518 184.66 662.175 182.983 663.274 181.823L660.37 179.073C658.397 181.156 657.518 183.916 657.518 187.104H661.518ZM663.197 181.9C664.357 180.801 666.034 180.144 668.478 180.144V176.144C665.29 176.144 662.53 177.023 660.447 178.996L663.197 181.9ZM668.478 180.144C670.688 180.144 672.141 180.802 673.132 181.91L676.112 179.242C674.202 177.107 671.559 176.144 668.478 176.144V180.144ZM673.17 181.951C674.328 183.174 674.926 184.675 674.926 186.592H678.926C678.926 183.73 677.988 181.221 676.074 179.201L673.17 181.951ZM674.926 186.592C674.926 187.492 674.736 188.223 674.402 188.834L677.914 190.75C678.604 189.484 678.926 188.081 678.926 186.592H674.926ZM674.312 189.023C673.937 189.923 673.621 190.305 673.47 190.432L676.03 193.504C676.903 192.777 677.526 191.709 678.004 190.561L674.312 189.023ZM672.777 192.297L672.905 193.065L676.851 192.407L676.723 191.639L672.777 192.297ZM674.486 194.697C675.119 194.824 675.971 194.864 676.926 194.864V190.864C676.004 190.864 675.49 190.819 675.27 190.775L674.486 194.697ZM676.926 194.864C679.89 194.864 682.493 193.36 684.721 190.869C686.929 188.4 688.9 184.827 690.691 180.286L686.969 178.818C685.261 183.152 683.499 186.234 681.739 188.203C679.999 190.149 678.399 190.864 676.926 190.864V194.864ZM690.687 180.295L692.479 175.815L688.765 174.329L686.973 178.809L690.687 180.295ZM692.481 174.334L667.777 112.126L664.059 113.602L688.763 175.81L692.481 174.334ZM665.918 110.864H659.646V114.864H665.918V110.864ZM661.646 112.864V105.184H657.646V112.864H661.646ZM659.646 107.184H691.518V103.184H659.646V107.184ZM689.518 105.184V112.864H693.518V105.184H689.518ZM691.518 110.864H683.71V114.864H691.518V110.864ZM681.824 113.529L696.544 155.257L700.316 153.927L685.596 112.199L681.824 113.529ZM698.43 156.592H699.07V152.592H698.43V156.592ZM700.956 155.257L715.676 113.529L711.904 112.199L697.184 153.927L700.956 155.257ZM713.79 110.864H705.982V114.864H713.79V110.864ZM707.982 112.864V105.184H703.982V112.864H707.982ZM705.982 107.184H729.534V103.184H705.982V107.184ZM727.534 105.184V112.864H731.534V105.184H727.534ZM729.534 110.864H723.39V114.864H729.534V110.864ZM721.533 112.121L694.653 179.321L698.367 180.807L725.247 113.607L721.533 112.121ZM694.658 179.309C693.751 181.535 692.677 183.767 691.434 186.005L694.93 187.947C696.247 185.577 697.392 183.201 698.362 180.819L694.658 179.309ZM691.406 186.055C690.304 188.182 688.931 190.062 687.288 191.706L690.116 194.534C692.057 192.594 693.671 190.378 694.958 187.897L691.406 186.055ZM687.254 191.741C685.731 193.34 683.892 194.647 681.716 195.658L683.4 199.286C686.002 198.078 688.26 196.484 690.15 194.499L687.254 191.741ZM681.69 195.67C679.706 196.625 677.325 197.136 674.494 197.136V201.136C677.807 201.136 680.802 200.537 683.426 199.274L681.69 195.67ZM781.12 171.104L780.226 172.893L780.235 172.897L780.244 172.902L781.12 171.104ZM772.672 164.192L771.072 165.392L771.091 165.417L771.11 165.441L772.672 164.192ZM767.296 153.184L765.367 153.713L765.374 153.736L765.38 153.759L767.296 153.184ZM767.296 124.128L765.377 123.564L765.374 123.576L765.37 123.589L767.296 124.128ZM772.672 113.12L771.093 111.892L771.088 111.898L772.672 113.12ZM781.12 106.08L780.244 104.282L780.235 104.287L780.226 104.291L781.12 106.08ZM810.432 115.04L808.594 115.828L809.113 117.04H810.432V115.04ZM811.072 115.04V117.04H813.072V115.04H811.072ZM811.072 87.904H813.072V86.2694L811.47 85.944L811.072 87.904ZM802.88 86.24H800.88V87.8746L802.482 88.2L802.88 86.24ZM802.88 79.84L802.478 77.8808L800.88 78.2086V79.84H802.88ZM827.84 74.72H829.84V72.2681L827.438 72.7608L827.84 74.72ZM827.84 160.352H825.84V161.987L827.442 162.312L827.84 160.352ZM836.032 162.016H838.032V160.381L836.43 160.056L836.032 162.016ZM836.032 168.416L836.434 170.375L838.032 170.047V168.416H836.032ZM811.072 173.536H809.072V175.988L811.474 175.495L811.072 173.536ZM811.072 162.016H813.072V160.016H811.072V162.016ZM810.432 162.016V160.016H809.099L808.586 161.247L810.432 162.016ZM803.904 170.08L802.704 168.48L802.693 168.488L802.682 168.496L803.904 170.08ZM807.104 159.84L808.359 161.397L808.374 161.385L808.389 161.372L807.104 159.84ZM807.104 117.472L805.819 119.004L805.834 119.017L805.849 119.029L807.104 117.472ZM787.392 118.496L788.87 119.844L787.392 118.496ZM787.392 158.688L788.87 157.34L787.392 158.688ZM792.256 171.536C788.431 171.536 785.023 170.781 781.996 169.306L780.244 172.902C783.873 174.67 787.889 175.536 792.256 175.536V171.536ZM782.014 169.315C779.045 167.83 776.452 165.716 774.234 162.943L771.11 165.441C773.67 168.641 776.71 171.135 780.226 172.893L782.014 169.315ZM774.272 162.992C772.13 160.136 770.435 156.686 769.212 152.609L765.38 153.759C766.717 158.215 768.606 162.104 771.072 165.392L774.272 162.992ZM769.225 152.655C768.085 148.504 767.504 143.822 767.504 138.592H763.504C763.504 144.114 764.117 149.16 765.367 153.713L769.225 152.655ZM767.504 138.592C767.504 133.361 768.086 128.726 769.222 124.667L765.37 123.589C764.117 128.064 763.504 133.071 763.504 138.592H767.504ZM769.215 124.692C770.439 120.531 772.13 117.096 774.256 114.342L771.088 111.898C768.606 115.117 766.713 119.021 765.377 123.564L769.215 124.692ZM774.251 114.348C776.47 111.494 779.058 109.347 782.014 107.869L780.226 104.291C776.696 106.056 773.652 108.602 771.093 111.892L774.251 114.348ZM781.996 107.878C785.023 106.403 788.431 105.648 792.256 105.648V101.648C787.889 101.648 783.873 102.514 780.244 104.282L781.996 107.878ZM792.256 105.648C796.807 105.648 800.264 106.723 802.81 108.688L805.254 105.52C801.827 102.877 797.433 101.648 792.256 101.648V105.648ZM802.81 108.688C805.571 110.817 807.468 113.202 808.594 115.828L812.27 114.252C810.836 110.905 808.467 107.999 805.254 105.52L802.81 108.688ZM810.432 117.04H811.072V113.04H810.432V117.04ZM813.072 115.04V87.904H809.072V115.04H813.072ZM811.47 85.944L803.278 84.28L802.482 88.2L810.674 89.864L811.47 85.944ZM804.88 86.24V79.84H800.88V86.24H804.88ZM803.282 81.7992L828.242 76.6792L827.438 72.7608L802.478 77.8808L803.282 81.7992ZM825.84 74.72V160.352H829.84V74.72H825.84ZM827.442 162.312L835.634 163.976L836.43 160.056L828.238 158.392L827.442 162.312ZM834.032 162.016V168.416H838.032V162.016H834.032ZM835.63 166.457L810.67 171.577L811.474 175.495L836.434 170.375L835.63 166.457ZM813.072 173.536V162.016H809.072V173.536H813.072ZM811.072 160.016H810.432V164.016H811.072V160.016ZM808.586 161.247C807.463 163.941 805.535 166.357 802.704 168.48L805.104 171.68C808.417 169.195 810.841 166.235 812.278 162.785L808.586 161.247ZM802.682 168.496C800.13 170.465 796.712 171.536 792.256 171.536V175.536C797.357 175.536 801.705 174.303 805.126 171.664L802.682 168.496ZM797.76 165.04C801.774 165.04 805.338 163.833 808.359 161.397L805.849 158.283C803.579 160.113 800.914 161.04 797.76 161.04V165.04ZM808.389 161.372C811.531 158.738 813.072 155.167 813.072 150.88H809.072C809.072 154.102 807.968 156.505 805.819 158.308L808.389 161.372ZM813.072 150.88V126.304H809.072V150.88H813.072ZM813.072 126.304C813.072 122.017 811.529 118.471 808.359 115.915L805.849 119.029C807.97 120.739 809.072 123.082 809.072 126.304H813.072ZM808.389 115.94C805.369 113.407 801.795 112.144 797.76 112.144V116.144C800.893 116.144 803.548 117.1 805.819 119.004L808.389 115.94ZM797.76 112.144C792.985 112.144 788.974 113.793 785.914 117.148L788.87 119.844C791.101 117.396 794.001 116.144 797.76 116.144V112.144ZM785.914 117.148C782.831 120.53 781.424 125.171 781.424 130.784H785.424C785.424 125.816 786.663 122.264 788.87 119.844L785.914 117.148ZM781.424 130.784V146.4H785.424V130.784H781.424ZM781.424 146.4C781.424 152.013 782.831 156.654 785.914 160.036L788.87 157.34C786.663 154.92 785.424 151.368 785.424 146.4H781.424ZM785.914 160.036C788.974 163.391 792.985 165.04 797.76 165.04V161.04C794.001 161.04 791.101 159.787 788.87 157.34L785.914 160.036ZM863.174 170.976L862.377 172.81L862.384 172.813L862.391 172.816L863.174 170.976ZM853.19 163.808L851.677 165.116L851.686 165.127L851.695 165.137L853.19 163.808ZM846.918 152.672L845.01 153.271L845.017 153.293L845.024 153.316L846.918 152.672ZM847.046 124.128L845.16 123.462L845.156 123.473L845.152 123.484L847.046 124.128ZM853.446 113.12L854.922 114.47L854.932 114.459L854.941 114.449L853.446 113.12ZM863.174 106.08L862.396 104.237L862.389 104.241L862.381 104.244L863.174 106.08ZM888.262 105.952L887.49 107.797L887.515 107.808L887.541 107.818L888.262 105.952ZM897.734 112.224L896.275 113.592L896.286 113.604L896.298 113.616L897.734 112.224ZM903.75 122.08L901.866 122.75L901.875 122.776L901.884 122.801L903.75 122.08ZM905.926 138.72V140.72H907.926V138.72H905.926ZM862.918 138.72V136.72H860.918V138.72H862.918ZM867.654 157.536L866.203 158.913L866.221 158.932L866.24 158.95L867.654 157.536ZM891.846 159.2L890.661 157.589L891.846 159.2ZM898.246 151.264L899.29 149.558L897.325 148.355L896.41 150.47L898.246 151.264ZM904.518 155.104L906.4 155.781L906.952 154.249L905.562 153.398L904.518 155.104ZM901.062 161.632L899.418 160.494L899.413 160.5L899.408 160.507L901.062 161.632ZM895.43 167.52L894.202 165.941L894.188 165.953L894.173 165.964L895.43 167.52ZM887.494 171.872L888.173 173.753L887.494 171.872ZM862.918 131.296H860.918V133.296H862.918V131.296ZM888.518 131.296V133.296H890.518V131.296H888.518ZM885.19 116.064L883.579 117.249L883.59 117.264L883.601 117.279L885.19 116.064ZM866.246 116.064L864.68 114.82L864.675 114.826L866.246 116.064ZM876.87 171.536C871.973 171.536 867.681 170.72 863.957 169.136L862.391 172.816C866.689 174.645 871.527 175.536 876.87 175.536V171.536ZM863.971 169.142C860.301 167.546 857.214 165.325 854.685 162.479L851.695 165.137C854.627 168.435 858.196 170.993 862.377 172.81L863.971 169.142ZM854.703 162.5C852.154 159.552 850.186 156.07 848.812 152.028L845.024 153.316C846.551 157.807 848.765 161.749 851.677 165.116L854.703 162.5ZM848.826 152.073C847.529 147.937 846.87 143.405 846.87 138.464H842.87C842.87 143.763 843.577 148.703 845.01 153.271L848.826 152.073ZM846.87 138.464C846.87 133.355 847.57 128.799 848.94 124.772L845.152 123.484C843.62 127.991 842.87 132.992 842.87 138.464H846.87ZM848.932 124.794C850.391 120.659 852.396 117.232 854.922 114.47L851.97 111.77C849.034 114.981 846.773 118.893 845.16 123.462L848.932 124.794ZM854.941 114.449C857.478 111.594 860.482 109.421 863.967 107.916L862.381 104.244C858.357 105.982 854.875 108.502 851.951 111.791L854.941 114.449ZM863.952 107.922C867.521 106.416 871.477 105.648 875.846 105.648V101.648C870.999 101.648 866.507 102.502 862.396 104.237L863.952 107.922ZM875.846 105.648C880.23 105.648 884.101 106.378 887.49 107.797L889.034 104.107C885.085 102.454 880.678 101.648 875.846 101.648V105.648ZM887.541 107.818C891.037 109.168 893.936 111.097 896.275 113.592L899.193 110.856C896.412 107.89 892.996 105.637 888.983 104.086L887.541 107.818ZM896.298 113.616C898.729 116.126 900.589 119.16 901.866 122.75L905.634 121.41C904.18 117.32 902.029 113.783 899.17 110.832L896.298 113.616ZM901.884 122.801C903.233 126.291 903.926 130.265 903.926 134.752H907.926C907.926 129.852 907.169 125.379 905.616 121.359L901.884 122.801ZM903.926 134.752V138.72H907.926V134.752H903.926ZM905.926 136.72H862.918V140.72H905.926V136.72ZM860.918 138.72V143.328H864.918V138.72H860.918ZM860.918 143.328C860.918 149.806 862.587 155.101 866.203 158.913L869.105 156.159C866.406 153.315 864.918 149.138 864.918 143.328H860.918ZM866.24 158.95C869.909 162.62 874.668 164.4 880.326 164.4V160.4C875.573 160.4 871.884 158.938 869.068 156.122L866.24 158.95ZM880.326 164.4C885.393 164.4 889.689 163.268 893.031 160.811L890.661 157.589C888.2 159.398 884.817 160.4 880.326 160.4V164.4ZM893.031 160.811C896.204 158.478 898.569 155.556 900.082 152.058L896.41 150.47C895.192 153.287 893.291 155.655 890.661 157.589L893.031 160.811ZM897.202 152.97L903.474 156.81L905.562 153.398L899.29 149.558L897.202 152.97ZM902.636 154.427C901.937 156.369 900.873 158.391 899.418 160.494L902.706 162.77C904.323 160.435 905.563 158.106 906.4 155.781L902.636 154.427ZM899.408 160.507C898.089 162.447 896.363 164.261 894.202 165.941L896.658 169.099C899.105 167.195 901.133 165.084 902.716 162.757L899.408 160.507ZM894.173 165.964C892.151 167.598 889.707 168.946 886.815 169.991L888.173 173.753C891.425 172.579 894.272 171.026 896.687 169.076L894.173 165.964ZM886.815 169.991C884.004 171.006 880.7 171.536 876.87 171.536V175.536C881.061 175.536 884.84 174.957 888.173 173.753L886.815 169.991ZM862.918 133.296H888.518V129.296H862.918V133.296ZM890.518 131.296V129.632H886.518V131.296H890.518ZM890.518 129.632C890.518 123.321 889.392 118.267 886.779 114.849L883.601 117.279C885.425 119.664 886.518 123.655 886.518 129.632H890.518ZM886.801 114.879C884.235 111.39 880.478 109.712 875.846 109.712V113.712C879.406 113.712 881.878 114.936 883.579 117.249L886.801 114.879ZM875.846 109.712C871.213 109.712 867.407 111.386 864.68 114.82L867.812 117.308C869.693 114.939 872.287 113.712 875.846 113.712V109.712ZM864.675 114.826C862.041 118.17 860.918 123.201 860.918 129.504H864.918C864.918 123.519 866.014 119.59 867.817 117.302L864.675 114.826ZM860.918 129.504V131.296H864.918V129.504H860.918ZM914.715 164.32V162.32H912.715V164.32H914.715ZM922.907 164.32V166.32H924.907V164.32H922.907ZM922.907 87.904H924.907V86.2694L923.305 85.944L922.907 87.904ZM914.715 86.24H912.715V87.8746L914.317 88.2L914.715 86.24ZM914.715 79.84L914.313 77.8808L912.715 78.2086V79.84H914.715ZM939.675 74.72H941.675V72.2681L939.273 72.7608L939.675 74.72ZM939.675 164.32H937.675V166.32H939.675V164.32ZM947.867 164.32H949.867V162.32H947.867V164.32ZM947.867 172V174H949.867V172H947.867ZM914.715 172H912.715V174H914.715V172ZM914.715 166.32H922.907V162.32H914.715V166.32ZM924.907 164.32V87.904H920.907V164.32H924.907ZM923.305 85.944L915.113 84.28L914.317 88.2L922.509 89.864L923.305 85.944ZM916.715 86.24V79.84H912.715V86.24H916.715ZM915.117 81.7992L940.077 76.6792L939.273 72.7608L914.313 77.8808L915.117 81.7992ZM937.675 74.72V164.32H941.675V74.72H937.675ZM939.675 166.32H947.867V162.32H939.675V166.32ZM945.867 164.32V172H949.867V164.32H945.867ZM947.867 170H914.715V174H947.867V170ZM916.715 172V164.32H912.715V172H916.715ZM986.623 164.32V162.32H984.623V164.32H986.623ZM994.815 164.32V166.32H996.815V164.32H994.815ZM994.815 116.832H996.815V115.197L995.213 114.872L994.815 116.832ZM986.623 115.168H984.623V116.803L986.225 117.128L986.623 115.168ZM986.623 108.768L986.217 106.81L984.623 107.14V108.768H986.623ZM1011.33 103.648H1013.33V101.191L1010.92 101.69L1011.33 103.648ZM1011.33 116.064H1009.33V118.064H1011.33V116.064ZM1011.97 116.064V118.064H1013.36L1013.84 116.755L1011.97 116.064ZM1014.4 111.456L1012.78 110.285L1012.77 110.294L1012.77 110.303L1014.4 111.456ZM1018.37 107.488L1019.54 109.109L1019.57 109.089L1019.59 109.067L1018.37 107.488ZM1023.74 104.672L1023.13 102.767L1023.12 102.771L1023.11 102.775L1023.74 104.672ZM1044.09 106.848L1042.98 108.505L1044.09 106.848ZM1050.62 116.448L1048.7 116.987L1049.11 118.448H1050.62V116.448ZM1051.14 116.448V118.448H1052.46L1052.98 117.224L1051.14 116.448ZM1053.82 111.712L1052.24 110.484L1052.22 110.512L1052.2 110.541L1053.82 111.712ZM1058.05 107.616L1056.9 105.978L1056.88 105.991L1056.86 106.006L1058.05 107.616ZM1063.81 104.8L1064.42 106.705L1064.44 106.698L1064.46 106.69L1063.81 104.8ZM1088 109.92L1086.42 111.146L1086.43 111.164L1086.45 111.181L1088 109.92ZM1092.99 164.32H1090.99V166.32H1092.99V164.32ZM1101.18 164.32H1103.18V162.32H1101.18V164.32ZM1101.18 172V174H1103.18V172H1101.18ZM1068.8 172H1066.8V174H1068.8V172ZM1068.8 164.32V162.32H1066.8V164.32H1068.8ZM1076.22 164.32V166.32H1078.22V164.32H1076.22ZM1073.54 118.368L1071.96 119.596L1071.97 119.61L1071.98 119.625L1073.54 118.368ZM1060.09 115.552L1059.56 113.625L1059.55 113.629L1059.53 113.633L1060.09 115.552ZM1056.13 117.6L1057.35 119.185L1057.35 119.179L1057.36 119.173L1056.13 117.6ZM1053.31 121.056L1051.54 120.12L1051.53 120.141L1051.52 120.162L1053.31 121.056ZM1052.29 164.32H1050.29V166.32H1052.29V164.32ZM1059.71 164.32H1061.71V162.32H1059.71V164.32ZM1059.71 172V174H1061.71V172H1059.71ZM1028.09 172H1026.09V174H1028.09V172ZM1028.09 164.32V162.32H1026.09V164.32H1028.09ZM1035.52 164.32V166.32H1037.52V164.32H1035.52ZM1032.83 118.368L1031.22 119.558L1031.25 119.592L1031.28 119.625L1032.83 118.368ZM1015.42 117.6L1016.64 119.185L1016.65 119.179L1016.66 119.173L1015.42 117.6ZM1012.61 121.056L1010.84 120.12L1010.83 120.141L1010.82 120.162L1012.61 121.056ZM1011.58 164.32H1009.58V166.32H1011.58V164.32ZM1019.01 164.32H1021.01V162.32H1019.01V164.32ZM1019.01 172V174H1021.01V172H1019.01ZM986.623 172H984.623V174H986.623V172ZM986.623 166.32H994.815V162.32H986.623V166.32ZM996.815 164.32V116.832H992.815V164.32H996.815ZM995.213 114.872L987.021 113.208L986.225 117.128L994.417 118.792L995.213 114.872ZM988.623 115.168V108.768H984.623V115.168H988.623ZM987.029 110.726L1011.73 105.606L1010.92 101.69L986.217 106.81L987.029 110.726ZM1009.33 103.648V116.064H1013.33V103.648H1009.33ZM1011.33 118.064H1011.97V114.064H1011.33V118.064ZM1013.84 116.755C1014.38 115.302 1015.11 113.921 1016.03 112.609L1012.77 110.303C1011.64 111.892 1010.75 113.583 1010.09 115.373L1013.84 116.755ZM1016.02 112.627C1017 111.264 1018.18 110.094 1019.54 109.109L1017.2 105.867C1015.49 107.101 1014.01 108.576 1012.78 110.285L1016.02 112.627ZM1019.59 109.067C1020.93 108.026 1022.52 107.188 1024.38 106.569L1023.11 102.775C1020.87 103.521 1018.87 104.561 1017.14 105.909L1019.59 109.067ZM1024.35 106.577C1026.26 105.967 1028.44 105.648 1030.91 105.648V101.648C1028.1 101.648 1025.5 102.011 1023.13 102.767L1024.35 106.577ZM1030.91 105.648C1036.32 105.648 1040.27 106.678 1042.98 108.505L1045.21 105.191C1041.6 102.751 1036.76 101.648 1030.91 101.648V105.648ZM1042.98 108.505C1045.68 110.331 1047.61 113.099 1048.7 116.987L1052.55 115.909C1051.25 111.264 1048.83 107.632 1045.21 105.191L1042.98 108.505ZM1050.62 118.448H1051.14V114.448H1050.62V118.448ZM1052.98 117.224C1053.6 115.753 1054.42 114.306 1055.44 112.883L1052.2 110.541C1051.01 112.19 1050.04 113.901 1049.29 115.672L1052.98 117.224ZM1055.4 112.94C1056.48 111.554 1057.75 110.316 1059.23 109.226L1056.86 106.006C1055.1 107.306 1053.56 108.798 1052.24 110.484L1055.4 112.94ZM1059.19 109.254C1060.72 108.183 1062.46 107.331 1064.42 106.705L1063.2 102.895C1060.89 103.634 1058.78 104.659 1056.9 105.978L1059.19 109.254ZM1064.46 106.69C1066.43 106.008 1068.72 105.648 1071.36 105.648V101.648C1068.36 101.648 1065.62 102.056 1063.15 102.91L1064.46 106.69ZM1071.36 105.648C1078.9 105.648 1083.71 107.654 1086.42 111.146L1089.58 108.694C1085.8 103.823 1079.52 101.648 1071.36 101.648V105.648ZM1086.45 111.181C1089.36 114.768 1090.99 120.416 1090.99 128.48H1094.99C1094.99 119.989 1093.29 113.264 1089.55 108.659L1086.45 111.181ZM1090.99 128.48V164.32H1094.99V128.48H1090.99ZM1092.99 166.32H1101.18V162.32H1092.99V166.32ZM1099.18 164.32V172H1103.18V164.32H1099.18ZM1101.18 170H1068.8V174H1101.18V170ZM1070.8 172V164.32H1066.8V172H1070.8ZM1068.8 166.32H1076.22V162.32H1068.8V166.32ZM1078.22 164.32V129.248H1074.22V164.32H1078.22ZM1078.22 129.248C1078.22 124.069 1077.32 119.87 1075.09 117.111L1071.98 119.625C1073.33 121.303 1074.22 124.357 1074.22 129.248H1078.22ZM1075.11 117.14C1072.81 114.173 1069.15 112.912 1064.7 112.912V116.912C1068.45 116.912 1070.68 117.955 1071.96 119.596L1075.11 117.14ZM1064.7 112.912C1062.98 112.912 1061.26 113.152 1059.56 113.625L1060.63 117.479C1062 117.099 1063.35 116.912 1064.7 116.912V112.912ZM1059.53 113.633C1057.84 114.132 1056.28 114.933 1054.89 116.027L1057.36 119.173C1058.36 118.39 1059.45 117.825 1060.66 117.471L1059.53 113.633ZM1054.91 116.015C1053.54 117.07 1052.42 118.46 1051.54 120.12L1055.08 121.992C1055.74 120.751 1056.5 119.836 1057.35 119.185L1054.91 116.015ZM1051.52 120.162C1050.67 121.861 1050.29 123.802 1050.29 125.92H1054.29C1054.29 124.283 1054.58 122.982 1055.1 121.95L1051.52 120.162ZM1050.29 125.92V164.32H1054.29V125.92H1050.29ZM1052.29 166.32H1059.71V162.32H1052.29V166.32ZM1057.71 164.32V172H1061.71V164.32H1057.71ZM1059.71 170H1028.09V174H1059.71V170ZM1030.09 172V164.32H1026.09V172H1030.09ZM1028.09 166.32H1035.52V162.32H1028.09V166.32ZM1037.52 164.32V129.248H1033.52V164.32H1037.52ZM1037.52 129.248C1037.52 124.069 1036.62 119.87 1034.39 117.111L1031.28 119.625C1032.63 121.303 1033.52 124.357 1033.52 129.248H1037.52ZM1034.44 117.178C1032.22 114.181 1028.63 112.912 1024.26 112.912V116.912C1027.9 116.912 1030.03 117.947 1031.22 119.558L1034.44 117.178ZM1024.26 112.912C1022.46 112.912 1020.7 113.149 1018.98 113.625L1020.05 117.479C1021.41 117.102 1022.81 116.912 1024.26 116.912V112.912ZM1018.98 113.625C1017.21 114.119 1015.6 114.917 1014.19 116.027L1016.66 119.173C1017.64 118.405 1018.76 117.839 1020.05 117.479L1018.98 113.625ZM1014.2 116.015C1012.83 117.07 1011.72 118.46 1010.84 120.12L1014.37 121.992C1015.03 120.751 1015.8 119.836 1016.64 119.185L1014.2 116.015ZM1010.82 120.162C1009.97 121.861 1009.58 123.802 1009.58 125.92H1013.58C1013.58 124.283 1013.88 122.982 1014.4 121.95L1010.82 120.162ZM1009.58 125.92V164.32H1013.58V125.92H1009.58ZM1011.58 166.32H1019.01V162.32H1011.58V166.32ZM1017.01 164.32V172H1021.01V164.32H1017.01ZM1019.01 170H986.623V174H1019.01V170ZM988.623 172V164.32H984.623V172H988.623ZM1121.39 167.392L1119.84 168.657L1119.84 168.665L1119.85 168.672L1121.39 167.392ZM1116.27 116.832H1118.27V115.197L1116.67 114.872L1116.27 116.832ZM1108.08 115.168H1106.08V116.803L1107.68 117.128L1108.08 115.168ZM1108.08 108.768L1107.67 106.809L1106.08 107.137V108.768H1108.08ZM1133.03 103.648H1135.03V101.196L1132.63 101.689L1133.03 103.648ZM1135.85 158.944L1134.3 160.207L1134.31 160.222L1134.32 160.236L1135.85 158.944ZM1149.67 161.632L1150.21 163.559L1149.67 161.632ZM1153.77 159.712L1154.93 161.339L1154.94 161.332L1154.95 161.325L1153.77 159.712ZM1156.84 156.256L1158.59 157.237L1156.84 156.256ZM1157.99 116.832H1159.99V115.192L1158.39 114.871L1157.99 116.832ZM1149.67 115.168H1147.67V116.808L1149.28 117.129L1149.67 115.168ZM1149.67 108.768L1149.28 106.808L1147.67 107.135V108.768H1149.67ZM1174.76 103.648H1176.76V101.199L1174.36 101.688L1174.76 103.648ZM1174.76 160.352H1172.76V161.987L1174.36 162.312L1174.76 160.352ZM1182.96 162.016H1184.96V160.381L1183.35 160.056L1182.96 162.016ZM1182.96 168.416L1183.36 170.374L1184.96 170.044V168.416H1182.96ZM1158.25 173.536H1156.25V175.993L1158.66 175.494L1158.25 173.536ZM1158.25 161.12H1160.25V159.12H1158.25V161.12ZM1157.61 161.12V159.12H1156.22L1155.73 160.429L1157.61 161.12ZM1155.05 165.856L1153.43 164.685L1153.42 164.694L1153.42 164.703L1155.05 165.856ZM1151.08 169.824L1152.25 171.445L1152.26 171.44L1152.27 171.434L1151.08 169.824ZM1145.71 172.512L1145.07 170.615L1145.71 172.512ZM1138.67 171.536C1130.84 171.536 1125.79 169.556 1122.92 166.112L1119.85 168.672C1123.81 173.42 1130.28 175.536 1138.67 175.536V171.536ZM1122.94 166.127C1119.93 162.45 1118.27 156.755 1118.27 148.704H1114.27C1114.27 157.208 1116.01 163.972 1119.84 168.657L1122.94 166.127ZM1118.27 148.704V116.832H1114.27V148.704H1118.27ZM1116.67 114.872L1108.47 113.208L1107.68 117.128L1115.87 118.792L1116.67 114.872ZM1110.08 115.168V108.768H1106.08V115.168H1110.08ZM1108.48 110.727L1133.44 105.607L1132.63 101.689L1107.67 106.809L1108.48 110.727ZM1131.03 103.648V147.936H1135.03V103.648H1131.03ZM1131.03 147.936C1131.03 153.139 1131.99 157.372 1134.3 160.207L1137.4 157.681C1135.96 155.908 1135.03 152.802 1135.03 147.936H1131.03ZM1134.32 160.236C1136.73 163.073 1140.44 164.272 1144.94 164.272V160.272C1141.08 160.272 1138.73 159.252 1137.38 157.652L1134.32 160.236ZM1144.94 164.272C1146.74 164.272 1148.5 164.035 1150.21 163.559L1149.14 159.705C1147.78 160.082 1146.38 160.272 1144.94 160.272V164.272ZM1150.21 163.559C1151.95 163.075 1153.53 162.34 1154.93 161.339L1152.61 158.085C1151.62 158.791 1150.47 159.335 1149.14 159.705L1150.21 163.559ZM1154.95 161.325C1156.46 160.22 1157.68 158.853 1158.59 157.237L1155.1 155.275C1154.47 156.389 1153.64 157.327 1152.59 158.099L1154.95 161.325ZM1158.59 157.237C1159.55 155.518 1159.99 153.545 1159.99 151.392H1155.99C1155.99 152.994 1155.67 154.264 1155.1 155.275L1158.59 157.237ZM1159.99 151.392V116.832H1155.99V151.392H1159.99ZM1158.39 114.871L1150.07 113.207L1149.28 117.129L1157.6 118.793L1158.39 114.871ZM1151.67 115.168V108.768H1147.67V115.168H1151.67ZM1150.07 110.728L1175.16 105.608L1174.36 101.688L1149.28 106.808L1150.07 110.728ZM1172.76 103.648V160.352H1176.76V103.648H1172.76ZM1174.36 162.312L1182.56 163.976L1183.35 160.056L1175.16 158.392L1174.36 162.312ZM1180.96 162.016V168.416H1184.96V162.016H1180.96ZM1182.55 166.458L1157.85 171.578L1158.66 175.494L1183.36 170.374L1182.55 166.458ZM1160.25 173.536V161.12H1156.25V173.536H1160.25ZM1158.25 159.12H1157.61V163.12H1158.25V159.12ZM1155.73 160.429C1155.21 161.864 1154.44 163.282 1153.43 164.685L1156.67 167.027C1157.88 165.358 1158.82 163.619 1159.49 161.811L1155.73 160.429ZM1153.42 164.703C1152.53 165.956 1151.37 167.13 1149.9 168.214L1152.27 171.434C1154.04 170.129 1155.52 168.657 1156.68 167.009L1153.42 164.703ZM1149.91 168.203C1148.56 169.178 1146.96 169.987 1145.07 170.615L1146.34 174.409C1148.55 173.671 1150.53 172.689 1152.25 171.445L1149.91 168.203ZM1145.07 170.615C1143.27 171.216 1141.14 171.536 1138.67 171.536V175.536C1141.48 175.536 1144.05 175.173 1146.34 174.409L1145.07 170.615ZM1210.17 170.976L1209.38 172.81L1209.38 172.813L1209.39 172.816L1210.17 170.976ZM1200.19 163.808L1198.68 165.116L1198.69 165.127L1198.7 165.137L1200.19 163.808ZM1193.92 152.672L1192.01 153.271L1192.02 153.293L1192.02 153.316L1193.92 152.672ZM1194.05 124.128L1192.16 123.462L1192.16 123.473L1192.15 123.484L1194.05 124.128ZM1200.45 113.12L1201.92 114.47L1201.93 114.459L1201.94 114.449L1200.45 113.12ZM1210.17 106.08L1209.4 104.237L1209.39 104.241L1209.38 104.244L1210.17 106.08ZM1235.26 105.952L1234.49 107.797L1234.52 107.808L1234.54 107.818L1235.26 105.952ZM1244.73 112.224L1243.27 113.592L1243.29 113.604L1243.3 113.616L1244.73 112.224ZM1250.75 122.08L1248.87 122.75L1248.87 122.776L1248.88 122.801L1250.75 122.08ZM1252.93 138.72V140.72H1254.93V138.72H1252.93ZM1209.92 138.72V136.72H1207.92V138.72H1209.92ZM1214.65 157.536L1213.2 158.913L1213.22 158.932L1213.24 158.95L1214.65 157.536ZM1238.85 159.2L1237.66 157.589L1238.85 159.2ZM1245.25 151.264L1246.29 149.558L1244.32 148.355L1243.41 150.47L1245.25 151.264ZM1251.52 155.104L1253.4 155.781L1253.95 154.249L1252.56 153.398L1251.52 155.104ZM1248.06 161.632L1246.42 160.494L1246.41 160.5L1246.41 160.507L1248.06 161.632ZM1242.43 167.52L1241.2 165.941L1241.19 165.953L1241.17 165.964L1242.43 167.52ZM1234.49 171.872L1235.17 173.753L1234.49 171.872ZM1209.92 131.296H1207.92V133.296H1209.92V131.296ZM1235.52 131.296V133.296H1237.52V131.296H1235.52ZM1232.19 116.064L1230.58 117.249L1230.59 117.264L1230.6 117.279L1232.19 116.064ZM1213.25 116.064L1211.68 114.82L1211.68 114.826L1213.25 116.064ZM1223.87 171.536C1218.97 171.536 1214.68 170.72 1210.96 169.136L1209.39 172.816C1213.69 174.645 1218.53 175.536 1223.87 175.536V171.536ZM1210.97 169.142C1207.3 167.546 1204.21 165.325 1201.68 162.479L1198.7 165.137C1201.63 168.435 1205.2 170.993 1209.38 172.81L1210.97 169.142ZM1201.7 162.5C1199.15 159.552 1197.19 156.07 1195.81 152.028L1192.02 153.316C1193.55 157.807 1195.77 161.749 1198.68 165.116L1201.7 162.5ZM1195.83 152.073C1194.53 147.937 1193.87 143.405 1193.87 138.464H1189.87C1189.87 143.763 1190.58 148.703 1192.01 153.271L1195.83 152.073ZM1193.87 138.464C1193.87 133.355 1194.57 128.799 1195.94 124.772L1192.15 123.484C1190.62 127.991 1189.87 132.992 1189.87 138.464H1193.87ZM1195.93 124.794C1197.39 120.659 1199.4 117.232 1201.92 114.47L1198.97 111.77C1196.03 114.981 1193.77 118.893 1192.16 123.462L1195.93 124.794ZM1201.94 114.449C1204.48 111.594 1207.48 109.421 1210.97 107.916L1209.38 104.244C1205.36 105.982 1201.87 108.502 1198.95 111.791L1201.94 114.449ZM1210.95 107.922C1214.52 106.416 1218.48 105.648 1222.85 105.648V101.648C1218 101.648 1213.51 102.502 1209.4 104.237L1210.95 107.922ZM1222.85 105.648C1227.23 105.648 1231.1 106.378 1234.49 107.797L1236.03 104.107C1232.08 102.454 1227.68 101.648 1222.85 101.648V105.648ZM1234.54 107.818C1238.04 109.168 1240.94 111.097 1243.27 113.592L1246.19 110.856C1243.41 107.89 1240 105.637 1235.98 104.086L1234.54 107.818ZM1243.3 113.616C1245.73 116.126 1247.59 119.16 1248.87 122.75L1252.63 121.41C1251.18 117.32 1249.03 113.783 1246.17 110.832L1243.3 113.616ZM1248.88 122.801C1250.23 126.291 1250.93 130.265 1250.93 134.752H1254.93C1254.93 129.852 1254.17 125.379 1252.62 121.359L1248.88 122.801ZM1250.93 134.752V138.72H1254.93V134.752H1250.93ZM1252.93 136.72H1209.92V140.72H1252.93V136.72ZM1207.92 138.72V143.328H1211.92V138.72H1207.92ZM1207.92 143.328C1207.92 149.806 1209.59 155.101 1213.2 158.913L1216.1 156.159C1213.41 153.315 1211.92 149.138 1211.92 143.328H1207.92ZM1213.24 158.95C1216.91 162.62 1221.67 164.4 1227.33 164.4V160.4C1222.57 160.4 1218.88 158.938 1216.07 156.122L1213.24 158.95ZM1227.33 164.4C1232.39 164.4 1236.69 163.268 1240.03 160.811L1237.66 157.589C1235.2 159.398 1231.82 160.4 1227.33 160.4V164.4ZM1240.03 160.811C1243.2 158.478 1245.57 155.556 1247.08 152.058L1243.41 150.47C1242.19 153.287 1240.29 155.655 1237.66 157.589L1240.03 160.811ZM1244.2 152.97L1250.47 156.81L1252.56 153.398L1246.29 149.558L1244.2 152.97ZM1249.64 154.427C1248.94 156.369 1247.87 158.391 1246.42 160.494L1249.71 162.77C1251.32 160.435 1252.56 158.106 1253.4 155.781L1249.64 154.427ZM1246.41 160.507C1245.09 162.447 1243.36 164.261 1241.2 165.941L1243.66 169.099C1246.11 167.195 1248.13 165.084 1249.72 162.757L1246.41 160.507ZM1241.17 165.964C1239.15 167.598 1236.71 168.946 1233.81 169.991L1235.17 173.753C1238.42 172.579 1241.27 171.026 1243.69 169.076L1241.17 165.964ZM1233.81 169.991C1231 171.006 1227.7 171.536 1223.87 171.536V175.536C1228.06 175.536 1231.84 174.957 1235.17 173.753L1233.81 169.991ZM1209.92 133.296H1235.52V129.296H1209.92V133.296ZM1237.52 131.296V129.632H1233.52V131.296H1237.52ZM1237.52 129.632C1237.52 123.321 1236.39 118.267 1233.78 114.849L1230.6 117.279C1232.43 119.664 1233.52 123.655 1233.52 129.632H1237.52ZM1233.8 114.879C1231.24 111.39 1227.48 109.712 1222.85 109.712V113.712C1226.41 113.712 1228.88 114.936 1230.58 117.249L1233.8 114.879ZM1222.85 109.712C1218.21 109.712 1214.41 111.386 1211.68 114.82L1214.81 117.308C1216.69 114.939 1219.29 113.712 1222.85 113.712V109.712ZM1211.68 114.826C1209.04 118.17 1207.92 123.201 1207.92 129.504H1211.92C1211.92 123.519 1213.01 119.59 1214.82 117.302L1211.68 114.826ZM1207.92 129.504V131.296H1211.92V129.504H1207.92ZM1291.79 170.08L1292.95 168.45L1291.79 170.08ZM1285.01 162.016L1286.86 161.247L1286.34 160.016H1285.01V162.016ZM1284.37 162.016V160.016H1283.42L1282.82 160.759L1284.37 162.016ZM1276.31 172V174H1277.26L1277.86 173.257L1276.31 172ZM1268.76 172H1266.76V174H1268.76V172ZM1268.76 87.904H1270.76V86.2694L1269.15 85.944L1268.76 87.904ZM1260.56 86.24H1258.56V87.8746L1260.16 88.2L1260.56 86.24ZM1260.56 79.84L1260.16 77.8808L1258.56 78.2086V79.84H1260.56ZM1285.52 74.72H1287.52V72.2681L1285.12 72.7608L1285.52 74.72ZM1285.52 115.04H1283.52V117.04H1285.52V115.04ZM1286.16 115.04V117.04H1287.48L1288 115.828L1286.16 115.04ZM1292.56 107.104L1293.78 108.688L1292.56 107.104ZM1315.35 106.08L1314.45 107.869L1314.46 107.873L1314.47 107.878L1315.35 106.08ZM1323.79 113.12L1322.2 114.32L1322.21 114.345L1322.23 114.369L1323.79 113.12ZM1329.17 124.128L1327.24 124.657L1327.25 124.68L1327.26 124.703L1329.17 124.128ZM1329.17 153.184L1327.25 152.62L1327.25 152.632L1327.25 152.645L1329.17 153.184ZM1323.79 164.192L1322.22 162.964L1322.21 162.97L1323.79 164.192ZM1315.35 171.104L1314.47 169.306L1314.46 169.311L1314.45 169.315L1315.35 171.104ZM1309.2 158.688L1310.68 160.036L1309.2 158.688ZM1309.2 118.496L1310.68 117.148L1309.2 118.496ZM1289.49 117.472L1290.75 119.029L1290.76 119.017L1290.78 119.004L1289.49 117.472ZM1289.49 159.84L1288.21 161.372L1288.22 161.385L1288.24 161.397L1289.49 159.84ZM1304.34 171.536C1299.52 171.536 1295.77 170.452 1292.95 168.45L1290.64 171.71C1294.3 174.316 1298.92 175.536 1304.34 175.536V171.536ZM1292.95 168.45C1289.96 166.32 1287.97 163.911 1286.86 161.247L1283.16 162.785C1284.61 166.265 1287.15 169.232 1290.64 171.71L1292.95 168.45ZM1285.01 160.016H1284.37V164.016H1285.01V160.016ZM1282.82 160.759L1274.75 170.743L1277.86 173.257L1285.93 163.273L1282.82 160.759ZM1276.31 170H1268.76V174H1276.31V170ZM1270.76 172V87.904H1266.76V172H1270.76ZM1269.15 85.944L1260.96 84.28L1260.16 88.2L1268.36 89.864L1269.15 85.944ZM1262.56 86.24V79.84H1258.56V86.24H1262.56ZM1260.96 81.7992L1285.92 76.6792L1285.12 72.7608L1260.16 77.8808L1260.96 81.7992ZM1283.52 74.72V115.04H1287.52V74.72H1283.52ZM1285.52 117.04H1286.16V113.04H1285.52V117.04ZM1288 115.828C1289.13 113.202 1291.02 110.817 1293.78 108.688L1291.34 105.52C1288.13 107.999 1285.76 110.905 1284.32 114.252L1288 115.828ZM1293.78 108.688C1296.33 106.723 1299.79 105.648 1304.34 105.648V101.648C1299.16 101.648 1294.77 102.877 1291.34 105.52L1293.78 108.688ZM1304.34 105.648C1308.17 105.648 1311.52 106.403 1314.45 107.869L1316.24 104.291C1312.69 102.514 1308.7 101.648 1304.34 101.648V105.648ZM1314.47 107.878C1317.5 109.355 1320.07 111.492 1322.2 114.32L1325.4 111.92C1322.91 108.604 1319.85 106.048 1316.22 104.282L1314.47 107.878ZM1322.23 114.369C1324.42 117.109 1326.11 120.521 1327.24 124.657L1331.1 123.599C1329.85 119.031 1327.94 115.104 1325.36 111.871L1322.23 114.369ZM1327.26 124.703C1328.47 128.749 1329.09 133.372 1329.09 138.592H1333.09C1333.09 133.06 1332.43 128.04 1331.09 123.553L1327.26 124.703ZM1329.09 138.592C1329.09 143.811 1328.47 148.481 1327.25 152.62L1331.09 153.748C1332.43 149.183 1333.09 144.125 1333.09 138.592H1329.09ZM1327.25 152.645C1326.11 156.696 1324.43 160.123 1322.22 162.964L1325.37 165.42C1327.94 162.117 1329.84 158.205 1331.1 153.723L1327.25 152.645ZM1322.21 162.97C1320.09 165.718 1317.52 167.822 1314.47 169.306L1316.22 172.902C1319.83 171.143 1322.89 168.64 1325.38 165.414L1322.21 162.97ZM1314.45 169.315C1311.52 170.781 1308.17 171.536 1304.34 171.536V175.536C1308.7 175.536 1312.69 174.67 1316.24 172.893L1314.45 169.315ZM1298.84 165.04C1303.61 165.04 1307.62 163.391 1310.68 160.036L1307.73 157.34C1305.49 159.787 1302.59 161.04 1298.84 161.04V165.04ZM1310.68 160.036C1313.76 156.654 1315.17 152.013 1315.17 146.4H1311.17C1311.17 151.368 1309.93 154.92 1307.73 157.34L1310.68 160.036ZM1315.17 146.4V130.784H1311.17V146.4H1315.17ZM1315.17 130.784C1315.17 125.171 1313.76 120.53 1310.68 117.148L1307.73 119.844C1309.93 122.264 1311.17 125.816 1311.17 130.784H1315.17ZM1310.68 117.148C1307.62 113.793 1303.61 112.144 1298.84 112.144V116.144C1302.59 116.144 1305.49 117.396 1307.73 119.844L1310.68 117.148ZM1298.84 112.144C1294.8 112.144 1291.23 113.407 1288.21 115.94L1290.78 119.004C1293.05 117.1 1295.7 116.144 1298.84 116.144V112.144ZM1288.24 115.915C1285.07 118.471 1283.52 122.017 1283.52 126.304H1287.52C1287.52 123.082 1288.63 120.739 1290.75 119.029L1288.24 115.915ZM1283.52 126.304V150.88H1287.52V126.304H1283.52ZM1283.52 150.88C1283.52 155.167 1285.06 158.738 1288.21 161.372L1290.78 158.308C1288.63 156.505 1287.52 154.102 1287.52 150.88H1283.52ZM1288.24 161.397C1291.26 163.833 1294.82 165.04 1298.84 165.04V161.04C1295.68 161.04 1293.02 160.113 1290.75 158.283L1288.24 161.397ZM1340.59 164.32V162.32H1338.59V164.32H1340.59ZM1348.78 164.32V166.32H1350.78V164.32H1348.78ZM1348.78 87.904H1350.78V86.2694L1349.18 85.944L1348.78 87.904ZM1340.59 86.24H1338.59V87.8746L1340.19 88.2L1340.59 86.24ZM1340.59 79.84L1340.19 77.8808L1338.59 78.2086V79.84H1340.59ZM1365.55 74.72H1367.55V72.2681L1365.15 72.7608L1365.55 74.72ZM1365.55 164.32H1363.55V166.32H1365.55V164.32ZM1373.74 164.32H1375.74V162.32H1373.74V164.32ZM1373.74 172V174H1375.74V172H1373.74ZM1340.59 172H1338.59V174H1340.59V172ZM1340.59 166.32H1348.78V162.32H1340.59V166.32ZM1350.78 164.32V87.904H1346.78V164.32H1350.78ZM1349.18 85.944L1340.99 84.28L1340.19 88.2L1348.38 89.864L1349.18 85.944ZM1342.59 86.24V79.84H1338.59V86.24H1342.59ZM1340.99 81.7992L1365.95 76.6792L1365.15 72.7608L1340.19 77.8808L1340.99 81.7992ZM1363.55 74.72V164.32H1367.55V74.72H1363.55ZM1365.55 166.32H1373.74V162.32H1365.55V166.32ZM1371.74 164.32V172H1375.74V164.32H1371.74ZM1373.74 170H1340.59V174H1373.74V170ZM1342.59 172V164.32H1338.59V172H1342.59ZM1400.92 170.976L1400.13 172.81L1400.13 172.813L1400.14 172.816L1400.92 170.976ZM1390.94 163.808L1389.43 165.116L1389.44 165.127L1389.45 165.137L1390.94 163.808ZM1384.67 152.672L1382.76 153.271L1382.77 153.293L1382.77 153.316L1384.67 152.672ZM1384.8 124.128L1382.91 123.462L1382.91 123.473L1382.9 123.484L1384.8 124.128ZM1391.2 113.12L1392.67 114.47L1392.68 114.459L1392.69 114.449L1391.2 113.12ZM1400.92 106.08L1400.15 104.237L1400.14 104.241L1400.13 104.244L1400.92 106.08ZM1426.01 105.952L1425.24 107.797L1425.27 107.808L1425.29 107.818L1426.01 105.952ZM1435.48 112.224L1434.02 113.592L1434.04 113.604L1434.05 113.616L1435.48 112.224ZM1441.5 122.08L1439.62 122.75L1439.62 122.776L1439.63 122.801L1441.5 122.08ZM1443.68 138.72V140.72H1445.68V138.72H1443.68ZM1400.67 138.72V136.72H1398.67V138.72H1400.67ZM1405.4 157.536L1403.95 158.913L1403.97 158.932L1403.99 158.95L1405.4 157.536ZM1429.6 159.2L1428.41 157.589L1429.6 159.2ZM1436 151.264L1437.04 149.558L1435.07 148.355L1434.16 150.47L1436 151.264ZM1442.27 155.104L1444.15 155.781L1444.7 154.249L1443.31 153.398L1442.27 155.104ZM1438.81 161.632L1437.17 160.494L1437.16 160.5L1437.16 160.507L1438.81 161.632ZM1433.18 167.52L1431.95 165.941L1431.94 165.953L1431.92 165.964L1433.18 167.52ZM1425.24 171.872L1425.92 173.753L1425.24 171.872ZM1400.67 131.296H1398.67V133.296H1400.67V131.296ZM1426.27 131.296V133.296H1428.27V131.296H1426.27ZM1422.94 116.064L1421.33 117.249L1421.34 117.264L1421.35 117.279L1422.94 116.064ZM1404 116.064L1402.43 114.82L1402.43 114.826L1404 116.064ZM1414.62 171.536C1409.72 171.536 1405.43 170.72 1401.71 169.136L1400.14 172.816C1404.44 174.645 1409.28 175.536 1414.62 175.536V171.536ZM1401.72 169.142C1398.05 167.546 1394.96 165.325 1392.43 162.479L1389.45 165.137C1392.38 168.435 1395.95 170.993 1400.13 172.81L1401.72 169.142ZM1392.45 162.5C1389.9 159.552 1387.94 156.07 1386.56 152.028L1382.77 153.316C1384.3 157.807 1386.52 161.749 1389.43 165.116L1392.45 162.5ZM1386.58 152.073C1385.28 147.937 1384.62 143.405 1384.62 138.464H1380.62C1380.62 143.763 1381.33 148.703 1382.76 153.271L1386.58 152.073ZM1384.62 138.464C1384.62 133.355 1385.32 128.799 1386.69 124.772L1382.9 123.484C1381.37 127.991 1380.62 132.992 1380.62 138.464H1384.62ZM1386.68 124.794C1388.14 120.659 1390.15 117.232 1392.67 114.47L1389.72 111.77C1386.78 114.981 1384.52 118.893 1382.91 123.462L1386.68 124.794ZM1392.69 114.449C1395.23 111.594 1398.23 109.421 1401.72 107.916L1400.13 104.244C1396.11 105.982 1392.62 108.502 1389.7 111.791L1392.69 114.449ZM1401.7 107.922C1405.27 106.416 1409.23 105.648 1413.6 105.648V101.648C1408.75 101.648 1404.26 102.502 1400.15 104.237L1401.7 107.922ZM1413.6 105.648C1417.98 105.648 1421.85 106.378 1425.24 107.797L1426.78 104.107C1422.83 102.454 1418.43 101.648 1413.6 101.648V105.648ZM1425.29 107.818C1428.79 109.168 1431.69 111.097 1434.02 113.592L1436.94 110.856C1434.16 107.89 1430.75 105.637 1426.73 104.086L1425.29 107.818ZM1434.05 113.616C1436.48 116.126 1438.34 119.16 1439.62 122.75L1443.38 121.41C1441.93 117.32 1439.78 113.783 1436.92 110.832L1434.05 113.616ZM1439.63 122.801C1440.98 126.291 1441.68 130.265 1441.68 134.752H1445.68C1445.68 129.852 1444.92 125.379 1443.37 121.359L1439.63 122.801ZM1441.68 134.752V138.72H1445.68V134.752H1441.68ZM1443.68 136.72H1400.67V140.72H1443.68V136.72ZM1398.67 138.72V143.328H1402.67V138.72H1398.67ZM1398.67 143.328C1398.67 149.806 1400.34 155.101 1403.95 158.913L1406.85 156.159C1404.16 153.315 1402.67 149.138 1402.67 143.328H1398.67ZM1403.99 158.95C1407.66 162.62 1412.42 164.4 1418.08 164.4V160.4C1413.32 160.4 1409.63 158.938 1406.82 156.122L1403.99 158.95ZM1418.08 164.4C1423.14 164.4 1427.44 163.268 1430.78 160.811L1428.41 157.589C1425.95 159.398 1422.57 160.4 1418.08 160.4V164.4ZM1430.78 160.811C1433.95 158.478 1436.32 155.556 1437.83 152.058L1434.16 150.47C1432.94 153.287 1431.04 155.655 1428.41 157.589L1430.78 160.811ZM1434.95 152.97L1441.22 156.81L1443.31 153.398L1437.04 149.558L1434.95 152.97ZM1440.39 154.427C1439.69 156.369 1438.62 158.391 1437.17 160.494L1440.46 162.77C1442.07 160.435 1443.31 158.106 1444.15 155.781L1440.39 154.427ZM1437.16 160.507C1435.84 162.447 1434.11 164.261 1431.95 165.941L1434.41 169.099C1436.86 167.195 1438.88 165.084 1440.47 162.757L1437.16 160.507ZM1431.92 165.964C1429.9 167.598 1427.46 168.946 1424.56 169.991L1425.92 173.753C1429.17 172.579 1432.02 171.026 1434.44 169.076L1431.92 165.964ZM1424.56 169.991C1421.75 171.006 1418.45 171.536 1414.62 171.536V175.536C1418.81 175.536 1422.59 174.957 1425.92 173.753L1424.56 169.991ZM1400.67 133.296H1426.27V129.296H1400.67V133.296ZM1428.27 131.296V129.632H1424.27V131.296H1428.27ZM1428.27 129.632C1428.27 123.321 1427.14 118.267 1424.53 114.849L1421.35 117.279C1423.18 119.664 1424.27 123.655 1424.27 129.632H1428.27ZM1424.55 114.879C1421.99 111.39 1418.23 109.712 1413.6 109.712V113.712C1417.16 113.712 1419.63 114.936 1421.33 117.249L1424.55 114.879ZM1413.6 109.712C1408.96 109.712 1405.16 111.386 1402.43 114.82L1405.56 117.308C1407.44 114.939 1410.04 113.712 1413.6 113.712V109.712ZM1402.43 114.826C1399.79 118.17 1398.67 123.201 1398.67 129.504H1402.67C1402.67 123.519 1403.76 119.59 1405.57 117.302L1402.43 114.826ZM1398.67 129.504V131.296H1402.67V129.504H1398.67Z" fill="black" mask="url(#path-5-outside-1_61_472)"/>
<defs>
<clipPath id="clip0_61_472">
<rect width="470" height="485" fill="white"/>
</clipPath>
</defs>
</svg>
