<svg width="50" height="50" viewBox="0 0 422 422" xmlns="http://www.w3.org/2000/svg">
  <path d="M279 195H288C328.317 195 361 227.683 361 268V353H279V195Z" fill="white"/>
  <path d="M134.5 138.653L133.639 186.645L72 186.645L134.5 138.653Z" fill="white"/>
  <path d="M151.509 75.2354L180.812 37.2188L230.299 73.966L151.509 75.2354Z" fill="white"/>
  <path d="M188.265 74.6295L217.933 36.8969L267.063 74.1192L188.265 74.6295Z" fill="white"/>
  <path d="M133.5 225V192.5L100.5 214.5C97.8333 219.167 96.2 229.6 111 234C125.8 238.4 132.167 229.833 133.5 225Z" fill="white"/>
  <path fill-rule="evenodd" clip-rule="evenodd" d="M198 82H138V280C138 320.317 170.683 353 211 353H271V155C271 114.683 238.317 82 198 82ZM172 141C180.837 141 188 133.837 188 125C188 116.163 180.837 109 172 109C163.163 109 156 116.163 156 125C156 133.837 163.163 141 172 141Z" fill="white"/>
</svg>
