<svg width="120" height="40" viewBox="0 0 188 63" xmlns="http://www.w3.org/2000/svg">
<path d="M77.0455 31C76.9848 30.2424 76.7008 29.6515 76.1932 29.2273C75.6932 28.803 74.9318 28.5909 73.9091 28.5909C73.2576 28.5909 72.7235 28.6705 72.3068 28.8295C71.8977 28.9811 71.5947 29.1894 71.3977 29.4545C71.2008 29.7197 71.0985 30.0227 71.0909 30.3636C71.0758 30.6439 71.125 30.8977 71.2386 31.125C71.3598 31.3447 71.5492 31.5455 71.8068 31.7273C72.0644 31.9015 72.3939 32.0606 72.7955 32.2045C73.197 32.3485 73.6742 32.4773 74.2273 32.5909L76.1364 33C77.4242 33.2727 78.5265 33.6326 79.4432 34.0795C80.3598 34.5265 81.1098 35.053 81.6932 35.6591C82.2765 36.2576 82.7045 36.9318 82.9773 37.6818C83.2576 38.4318 83.4015 39.25 83.4091 40.1364C83.4015 41.6667 83.0189 42.9621 82.2614 44.0227C81.5038 45.0833 80.4205 45.8902 79.0114 46.4432C77.6098 46.9962 75.9242 47.2727 73.9545 47.2727C71.9318 47.2727 70.1667 46.9735 68.6591 46.375C67.1591 45.7765 65.9924 44.8561 65.1591 43.6136C64.3333 42.3636 63.9167 40.7652 63.9091 38.8182H69.9091C69.947 39.5303 70.125 40.1288 70.4432 40.6136C70.7614 41.0985 71.2083 41.4659 71.7841 41.7159C72.3674 41.9659 73.0606 42.0909 73.8636 42.0909C74.5379 42.0909 75.1023 42.0076 75.5568 41.8409C76.0114 41.6742 76.3561 41.4432 76.5909 41.1477C76.8258 40.8523 76.947 40.5152 76.9545 40.1364C76.947 39.7803 76.8295 39.4697 76.6023 39.2045C76.3826 38.9318 76.0189 38.6894 75.5114 38.4773C75.0038 38.2576 74.3182 38.053 73.4545 37.8636L71.1364 37.3636C69.0758 36.9167 67.4508 36.1705 66.2614 35.125C65.0795 34.072 64.4924 32.6364 64.5 30.8182C64.4924 29.3409 64.8864 28.0492 65.6818 26.9432C66.4848 25.8295 67.5947 24.9621 69.0114 24.3409C70.4356 23.7197 72.0682 23.4091 73.9091 23.4091C75.7879 23.4091 77.4129 23.7235 78.7841 24.3523C80.1553 24.9811 81.2121 25.8674 81.9545 27.0114C82.7045 28.1477 83.0833 29.4773 83.0909 31H77.0455ZM97.2216 39.3636V29.5455H103.494V47H97.5398V43.6818H97.358C96.9792 44.7955 96.3163 45.6667 95.3693 46.2955C94.4223 46.9167 93.2973 47.2273 91.9943 47.2273C90.7746 47.2273 89.7064 46.947 88.7898 46.3864C87.8807 45.8258 87.1723 45.053 86.6648 44.0682C86.1648 43.0833 85.911 41.9545 85.9034 40.6818V29.5455H92.1761V39.3636C92.1837 40.2273 92.4034 40.9053 92.8352 41.3977C93.2746 41.8902 93.8883 42.1364 94.6761 42.1364C95.1989 42.1364 95.6496 42.0265 96.0284 41.8068C96.4148 41.5795 96.7102 41.2614 96.9148 40.8523C97.1269 40.4356 97.2292 39.9394 97.2216 39.3636ZM111.548 47.2727C110.435 47.2727 109.45 47.0909 108.594 46.7273C107.745 46.3561 107.079 45.7955 106.594 45.0455C106.109 44.2955 105.866 43.3409 105.866 42.1818C105.866 41.2273 106.029 40.4129 106.355 39.7386C106.681 39.0568 107.135 38.5 107.719 38.0682C108.302 37.6364 108.98 37.3068 109.753 37.0795C110.533 36.8523 111.374 36.7045 112.276 36.6364C113.253 36.5606 114.037 36.4697 114.628 36.3636C115.226 36.25 115.658 36.0947 115.923 35.8977C116.188 35.6932 116.321 35.4242 116.321 35.0909V35.0455C116.321 34.5909 116.147 34.2424 115.798 34C115.45 33.7576 115.003 33.6364 114.457 33.6364C113.859 33.6364 113.37 33.7689 112.991 34.0341C112.62 34.2917 112.397 34.6894 112.321 35.2273H106.548C106.624 34.1667 106.961 33.1894 107.56 32.2955C108.166 31.3939 109.048 30.6742 110.207 30.1364C111.366 29.5909 112.813 29.3182 114.548 29.3182C115.798 29.3182 116.92 29.4659 117.912 29.7614C118.904 30.0492 119.749 30.4545 120.446 30.9773C121.143 31.4924 121.673 32.0985 122.037 32.7955C122.408 33.4848 122.594 34.2348 122.594 35.0455V47H116.73V44.5455H116.594C116.245 45.197 115.821 45.7235 115.321 46.125C114.829 46.5265 114.264 46.8182 113.628 47C112.999 47.1818 112.306 47.2727 111.548 47.2727ZM113.594 43.3182C114.071 43.3182 114.518 43.2197 114.935 43.0227C115.359 42.8258 115.704 42.5417 115.969 42.1705C116.234 41.7992 116.366 41.3485 116.366 40.8182V39.3636C116.2 39.4318 116.022 39.4962 115.832 39.5568C115.651 39.6174 115.454 39.6742 115.241 39.7273C115.037 39.7803 114.817 39.8295 114.582 39.875C114.355 39.9205 114.116 39.9621 113.866 40C113.382 40.0758 112.984 40.2008 112.673 40.375C112.37 40.5417 112.143 40.75 111.991 41C111.848 41.2424 111.776 41.5152 111.776 41.8182C111.776 42.303 111.946 42.6742 112.287 42.9318C112.628 43.1894 113.063 43.3182 113.594 43.3182ZM125.591 47V29.5455H131.682V32.8636H131.864C132.182 31.6364 132.686 30.7386 133.375 30.1705C134.072 29.6023 134.886 29.3182 135.818 29.3182C136.091 29.3182 136.36 29.3409 136.625 29.3864C136.898 29.4242 137.159 29.4811 137.409 29.5568V34.9091C137.098 34.803 136.716 34.7235 136.261 34.6705C135.807 34.6174 135.417 34.5909 135.091 34.5909C134.477 34.5909 133.924 34.7311 133.432 35.0114C132.947 35.2841 132.564 35.6705 132.284 36.1705C132.004 36.6629 131.864 37.2424 131.864 37.9091V47H125.591ZM146.83 47.3182C144.966 47.3182 143.36 46.9621 142.011 46.25C140.67 45.5303 139.636 44.5 138.909 43.1591C138.189 41.8106 137.83 40.197 137.83 38.3182C137.83 36.5152 138.193 34.9394 138.92 33.5909C139.648 32.2424 140.674 31.1932 142 30.4432C143.326 29.6932 144.89 29.3182 146.693 29.3182C148.011 29.3182 149.205 29.5227 150.273 29.9318C151.341 30.3409 152.254 30.9356 153.011 31.7159C153.769 32.4886 154.352 33.428 154.761 34.5341C155.17 35.6402 155.375 36.8864 155.375 38.2727V39.7273H139.784V36.2727H149.602C149.595 35.7727 149.466 35.3333 149.216 34.9545C148.973 34.5682 148.644 34.2689 148.227 34.0568C147.818 33.8371 147.352 33.7273 146.83 33.7273C146.322 33.7273 145.856 33.8371 145.432 34.0568C145.008 34.2689 144.667 34.5644 144.409 34.9432C144.159 35.322 144.027 35.7652 144.011 36.2727V40C144.011 40.5606 144.129 41.0606 144.364 41.5C144.598 41.9394 144.936 42.2841 145.375 42.5341C145.814 42.7841 146.345 42.9091 146.966 42.9091C147.398 42.9091 147.792 42.8485 148.148 42.7273C148.511 42.6061 148.822 42.4318 149.08 42.2045C149.337 41.9697 149.527 41.6894 149.648 41.3636H155.375C155.178 42.5758 154.712 43.6288 153.977 44.5227C153.242 45.4091 152.269 46.0985 151.057 46.5909C149.852 47.0758 148.443 47.3182 146.83 47.3182ZM158.116 47V43.5455L165.753 34.4091V34.3182H158.389V29.5455H173.162V33.3636L166.207 42.1364V42.2273H173.435V47H158.116Z" fill="#ffffff"/>
<path d="M38 31C44.6274 31 50 36.3726 50 43V53H38V31Z" fill="#ffffff"/>
<path d="M18.6009 23.5027L18.4824 30.107L10 30.107L18.6009 23.5027Z" fill="#ffffff"/>
<path d="M20.9416 14.7755L24.974 9.54381L31.7842 14.6008L20.9416 14.7755Z" fill="#ffffff"/>
<path d="M25.9998 14.6921L30.0824 9.49957L36.8435 14.6219L25.9998 14.6921Z" fill="#ffffff"/>
<path d="M18 35.5647V31L14.2026 34.09C13.8957 34.7454 13.7078 36.2108 15.4108 36.8288C17.1139 37.4468 17.8466 36.2436 18 35.5647Z" fill="#ffffff"/>
<path fill-rule="evenodd" clip-rule="evenodd" d="M25.3853 15.7064H19.0825V42C19.0825 48.0751 24.0074 53 30.0825 53H37.3853V27.7064C37.3853 21.079 32.0127 15.7064 25.3853 15.7064ZM23.7614 23.8257C24.9775 23.8257 25.9633 22.8399 25.9633 21.6239C25.9633 20.4078 24.9775 19.422 23.7614 19.422C22.5454 19.422 21.5596 20.4078 21.5596 21.6239C21.5596 22.8399 22.5454 23.8257 23.7614 23.8257Z" fill="#ffffff"/>
</svg>
